<?xml version="1.0" standalone="no"?><!DOCTYPE svg PUBLIC "-//W3C//DTD SVG 1.1//EN" "http://www.w3.org/Graphics/SVG/1.1/DTD/svg11.dtd"><svg width="100%" height="100%" viewBox="0 0 76 17" version="1.1" xmlns="http://www.w3.org/2000/svg" xmlns:xlink="http://www.w3.org/1999/xlink" xml:space="preserve" style="fill-rule:evenodd;clip-rule:evenodd;stroke-linejoin:round;stroke-miterlimit:1.41421;"><path d="M11.304,11.879l-1.542,0l0,-3.942l-4.133,0l0,3.942l-1.542,0l0,-9.242l1.542,0l0,4.062l4.133,0l0,-4.062l1.542,0l0,9.242Z" style="fill:#4c89bc;fill-rule:nonzero;"/><path d="M15.107,9.124l0.152,0.686l0.038,0l1.505,-4.799l1.688,0l-2.844,7.909c-0.182,0.478 -0.438,0.886 -0.768,1.225c-0.33,0.338 -0.797,0.508 -1.403,0.508c-0.127,0 -0.263,-0.013 -0.409,-0.038c-0.146,-0.026 -0.287,-0.055 -0.422,-0.089l0.171,-1.194c0.055,0.005 0.134,0.011 0.235,0.019c0.102,0.009 0.178,0.013 0.229,0.013c0.279,0 0.502,-0.095 0.669,-0.285c0.167,-0.191 0.304,-0.411 0.41,-0.661l0.254,-0.622l-2.495,-6.785l1.682,0l1.308,4.113Z" style="fill:#4c89bc;fill-rule:nonzero;"/><path d="M25.174,8.673c0,0.999 -0.234,1.805 -0.704,2.419c-0.47,0.613 -1.124,0.92 -1.962,0.92c-0.389,0 -0.734,-0.07 -1.034,-0.209c-0.301,-0.14 -0.559,-0.345 -0.775,-0.616l0,3.332l-1.542,0l0,-9.508l1.301,0l0.152,0.863c0.22,-0.322 0.486,-0.567 0.797,-0.736c0.311,-0.17 0.672,-0.254 1.082,-0.254c0.847,0 1.506,0.335 1.978,1.006c0.471,0.671 0.707,1.554 0.707,2.65l0,0.133ZM23.638,8.54c0,-0.702 -0.132,-1.277 -0.396,-1.723c-0.265,-0.447 -0.66,-0.67 -1.184,-0.67c-0.322,0 -0.595,0.069 -0.819,0.206c-0.224,0.138 -0.404,0.329 -0.54,0.575l0,3.104c0.136,0.241 0.316,0.426 0.54,0.555c0.224,0.129 0.501,0.194 0.831,0.194c0.525,0 0.918,-0.194 1.178,-0.581c0.26,-0.387 0.39,-0.896 0.39,-1.527l0,-0.133Z" style="fill:#4c89bc;fill-rule:nonzero;"/><path d="M29.174,12.012c-1.003,0 -1.787,-0.316 -2.352,-0.949c-0.565,-0.632 -0.848,-1.452 -0.848,-2.46l0,-0.253c0,-1.008 0.283,-1.838 0.848,-2.492c0.565,-0.654 1.294,-0.979 2.187,-0.974c0.922,0 1.62,0.284 2.094,0.853c0.474,0.57 0.711,1.33 0.711,2.282l0,0.832l-4.246,0l-0.013,0.032c0.017,0.563 0.165,1.02 0.444,1.371c0.28,0.351 0.701,0.527 1.264,0.527c0.418,0 0.781,-0.051 1.088,-0.153c0.307,-0.101 0.592,-0.247 0.854,-0.438l0.501,1.01c-0.262,0.228 -0.609,0.421 -1.041,0.577c-0.431,0.157 -0.929,0.235 -1.491,0.235ZM29.009,6.122c-0.402,0 -0.724,0.144 -0.965,0.434c-0.241,0.29 -0.392,0.668 -0.451,1.133l0.013,0.032l2.685,0l0,-0.12c0,-0.441 -0.103,-0.797 -0.308,-1.07c-0.205,-0.273 -0.53,-0.409 -0.974,-0.409Z" style="fill:#4c89bc;fill-rule:nonzero;"/><path d="M36.226,6.401l-0.66,-0.026c-0.3,0 -0.551,0.064 -0.752,0.191c-0.201,0.127 -0.357,0.307 -0.467,0.539l0,4.774l-1.542,0l0,-6.868l1.409,0l0.102,0.996c0.173,-0.351 0.396,-0.626 0.669,-0.825c0.273,-0.199 0.587,-0.298 0.943,-0.298c0.093,0 0.18,0.007 0.26,0.022c0.08,0.015 0.155,0.033 0.222,0.054l-0.184,1.441Z" style="fill:#4c89bc;fill-rule:nonzero;"/><path d="M37.267,11.879l0,-9.242l3.028,0c1.02,0 1.818,0.21 2.393,0.631c0.576,0.421 0.864,1.051 0.864,1.889c0,0.406 -0.116,0.772 -0.346,1.098c-0.231,0.326 -0.552,0.573 -0.962,0.742c0.592,0.098 1.048,0.354 1.368,0.769c0.319,0.414 0.479,0.901 0.479,1.46c0,0.867 -0.283,1.526 -0.85,1.977c-0.567,0.451 -1.35,0.676 -2.349,0.676l-3.625,0ZM38.81,7.677l0,2.97l2.082,0c0.533,0 0.944,-0.121 1.231,-0.365c0.288,-0.243 0.432,-0.595 0.432,-1.056c0,-0.466 -0.142,-0.836 -0.425,-1.111c-0.284,-0.275 -0.682,-0.421 -1.194,-0.438l-0.082,0l-2.044,0ZM38.81,6.528l1.65,0c0.479,0 0.856,-0.113 1.133,-0.34c0.278,-0.226 0.416,-0.547 0.416,-0.962c0,-0.457 -0.146,-0.796 -0.438,-1.018c-0.292,-0.222 -0.717,-0.334 -1.276,-0.334l-1.485,0l0,2.654Z" style="fill:#4c89bc;fill-rule:nonzero;"/><rect x="45.228" y="1.976" width="1.542" height="9.902" style="fill:#4c89bc;fill-rule:nonzero;"/><path d="M47.951,8.381c0,-1.024 0.28,-1.863 0.841,-2.517c0.561,-0.653 1.328,-0.98 2.301,-0.98c0.986,0 1.76,0.327 2.32,0.98c0.561,0.654 0.841,1.493 0.841,2.517l0,0.134c0,1.032 -0.28,1.873 -0.841,2.523c-0.56,0.649 -1.33,0.974 -2.307,0.974c-0.982,0 -1.753,-0.326 -2.314,-0.977c-0.561,-0.652 -0.841,-1.492 -0.841,-2.52l0,-0.134ZM49.494,8.515c0,0.672 0.131,1.218 0.393,1.637c0.262,0.419 0.669,0.629 1.219,0.629c0.537,0 0.94,-0.211 1.209,-0.632c0.269,-0.421 0.403,-0.966 0.403,-1.634l0,-0.134c0,-0.656 -0.134,-1.196 -0.403,-1.622c-0.269,-0.425 -0.676,-0.637 -1.222,-0.637c-0.537,0 -0.938,0.212 -1.203,0.637c-0.264,0.426 -0.396,0.966 -0.396,1.622l0,0.134Z" style="fill:#4c89bc;fill-rule:nonzero;"/><path d="M57.314,3.341l0,1.67l1.232,0l0,1.142l-1.232,0l0,3.796c0,0.284 0.061,0.486 0.184,0.606c0.123,0.121 0.286,0.181 0.489,0.181c0.085,0 0.167,-0.007 0.248,-0.022c0.08,-0.015 0.156,-0.035 0.228,-0.06l0.165,1.13c-0.131,0.072 -0.287,0.128 -0.466,0.168c-0.18,0.04 -0.368,0.06 -0.562,0.06c-0.567,0 -1.013,-0.166 -1.336,-0.498c-0.324,-0.332 -0.486,-0.854 -0.486,-1.565l0,-3.796l-1.047,0l0,-1.142l1.047,0l0,-1.67l1.536,0Z" style="fill:#4c89bc;fill-rule:nonzero;"/><path d="M61.504,3.341l0,1.67l1.231,0l0,1.142l-1.231,0l0,3.796c0,0.284 0.061,0.486 0.184,0.606c0.123,0.121 0.286,0.181 0.489,0.181c0.084,0 0.167,-0.007 0.247,-0.022c0.081,-0.015 0.157,-0.035 0.229,-0.06l0.165,1.13c-0.131,0.072 -0.287,0.128 -0.467,0.168c-0.18,0.04 -0.367,0.06 -0.562,0.06c-0.567,0 -1.012,-0.166 -1.336,-0.498c-0.323,-0.332 -0.485,-0.854 -0.485,-1.565l0,-3.796l-1.048,0l0,-1.142l1.048,0l0,-1.67l1.536,0Z" style="fill:#4c89bc;fill-rule:nonzero;"/><path d="M66.633,12.012c-1.003,0 -1.787,-0.316 -2.352,-0.949c-0.565,-0.632 -0.847,-1.452 -0.847,-2.46l0,-0.253c0,-1.008 0.282,-1.838 0.847,-2.492c0.565,-0.654 1.294,-0.979 2.187,-0.974c0.922,0 1.621,0.284 2.095,0.853c0.474,0.57 0.711,1.33 0.711,2.282l0,0.832l-4.247,0l-0.013,0.032c0.017,0.563 0.165,1.02 0.445,1.371c0.279,0.351 0.7,0.527 1.263,0.527c0.419,0 0.782,-0.051 1.088,-0.153c0.307,-0.101 0.592,-0.247 0.854,-0.438l0.502,1.01c-0.263,0.228 -0.61,0.421 -1.041,0.577c-0.432,0.157 -0.929,0.235 -1.492,0.235ZM66.468,6.122c-0.402,0 -0.724,0.144 -0.965,0.434c-0.241,0.29 -0.391,0.668 -0.451,1.133l0.013,0.032l2.685,0l0,-0.12c0,-0.441 -0.102,-0.797 -0.308,-1.07c-0.205,-0.273 -0.53,-0.409 -0.974,-0.409Z" style="fill:#4c89bc;fill-rule:nonzero;"/><path d="M73.685,6.401l-0.66,-0.026c-0.3,0 -0.551,0.064 -0.752,0.191c-0.201,0.127 -0.356,0.307 -0.466,0.539l0,4.774l-1.543,0l0,-6.868l1.409,0l0.102,0.996c0.173,-0.351 0.397,-0.626 0.67,-0.825c0.272,-0.199 0.587,-0.298 0.942,-0.298c0.093,0 0.18,0.007 0.26,0.022c0.081,0.015 0.155,0.033 0.223,0.054l-0.185,1.441Z" style="fill:#4c89bc;fill-rule:nonzero;"/></svg>