<?xml version="1.0" standalone="no"?>
<!DOCTYPE svg PUBLIC "-//W3C//DTD SVG 1.1//EN" "http://www.w3.org/Graphics/SVG/1.1/DTD/svg11.dtd">
<svg width="100%" height="100%" viewBox="0 0 242 33" version="1.1" xmlns="http://www.w3.org/2000/svg" xmlns:xlink="http://www.w3.org/1999/xlink" xml:space="preserve" style="fill-rule:evenodd;clip-rule:evenodd;stroke-linejoin:round;stroke-miterlimit:1.41421;">
    <g transform="matrix(1,0,0,1,-18,-31)">
        <g transform="matrix(0.32083,0,0,0.32083,20.3863,36)">
            <clipPath id="_clip1">
                <rect x="0" y="0" width="296.816" height="71.579"/>
            </clipPath>
            <g clip-path="url(#_clip1)">
                <g transform="matrix(1.00066,0,0,1,-0.18554,0)">
                    <path d="M288.868,3.121L288.868,4.35L286.793,4.35L286.793,10.058L285.334,10.058L285.334,4.35L283.249,4.35L283.249,3.121L288.868,3.121Z" style="fill:rgb(153,153,153);fill-rule:nonzero;"/>
                    <path d="M294.313,3.121L296.398,3.121L296.398,10.058L295.048,10.058L295.048,5.366C295.048,5.231 295.049,5.042 295.052,4.799C295.055,4.556 295.057,4.368 295.057,4.237L293.744,10.058L292.337,10.058L291.033,4.237C291.033,4.368 291.035,4.556 291.038,4.799C291.041,5.042 291.042,5.231 291.042,5.366L291.042,10.058L289.692,10.058L289.692,3.121L291.8,3.121L293.062,8.576L294.313,3.121Z" style="fill:rgb(153,153,153);fill-rule:nonzero;"/>
                </g>
                <path d="M12.039,37.359C12.039,30.599 16.655,25.694 23.015,25.694C29.405,25.694 34.224,30.776 34.224,37.513L34.224,37.669C34.224,43.466 30.426,49.335 23.17,49.335C16.929,49.335 12.039,44.143 12.039,37.513L12.039,37.359ZM23.17,14.822C10.178,14.822 0,24.79 0,37.513L0,37.669C0,50.263 10.108,60.127 23.015,60.127C36.051,60.127 46.263,50.195 46.263,37.513L46.263,37.359C46.263,24.721 36.119,14.822 23.17,14.822" style="fill:rgb(172,206,236);fill-rule:nonzero;"/>
                <path d="M83.198,37.359L83.198,37.513C83.198,44.427 78.939,49.257 72.84,49.257C66.804,49.257 62.252,44.208 62.252,37.513L62.252,37.359C62.252,30.665 66.804,25.616 72.84,25.616C78.841,25.616 83.198,30.555 83.198,37.359M75.009,14.822C70.079,14.822 65.953,16.561 62.484,20.117L62.484,17.009C62.484,16.271 61.886,15.675 61.149,15.675L51.779,15.675C51.042,15.675 50.446,16.271 50.446,17.009L50.446,70.244C50.446,70.982 51.042,71.58 51.779,71.58L61.149,71.58C61.886,71.58 62.484,70.982 62.484,70.244L62.484,55.037C65.958,58.367 70.157,60.049 75.009,60.049C85.137,60.049 95.391,52.309 95.391,37.513L95.391,37.359C95.391,22.722 84.889,14.822 75.009,14.822" style="fill:rgb(172,206,236);fill-rule:nonzero;"/>
                <path d="M119.977,25.152C125.294,25.152 127.958,29.099 128.799,33.24L110.969,33.24C112.134,28.276 115.553,25.152 119.977,25.152M120.054,14.823C107.904,14.823 98.742,24.545 98.742,37.437L98.742,37.592C98.742,50.651 108.128,60.128 121.06,60.128C128.334,60.128 134.305,57.39 138.811,51.987C139.273,51.434 139.211,50.612 138.671,50.135L133.174,45.26C132.652,44.796 131.857,44.814 131.356,45.303C128.082,48.495 125.144,49.798 121.216,49.798C116.068,49.798 112.373,46.952 111.082,42.099L139.488,42.099C140.182,42.099 140.761,41.567 140.819,40.875L140.838,40.66C140.91,39.792 140.978,38.975 140.978,38.132C140.978,26.531 134.509,14.823 120.054,14.823" style="fill:rgb(172,206,236);fill-rule:nonzero;"/>
                <path d="M169.899,14.823C165.364,14.823 161.592,16.389 158.458,19.595L158.458,17.009C158.458,16.272 157.86,15.675 157.123,15.675L147.754,15.675C147.016,15.675 146.418,16.272 146.418,17.009L146.418,57.865C146.418,58.603 147.016,59.199 147.754,59.199L157.123,59.199C157.86,59.199 158.458,58.603 158.458,57.865L158.458,34.806C158.458,29.376 161.477,26.003 166.338,26.003C172.465,26.003 173.752,30.707 173.752,34.651L173.752,57.865C173.752,58.603 174.35,59.199 175.086,59.199L184.455,59.199C185.193,59.199 185.792,58.603 185.792,57.865L185.792,31.866C185.792,21.353 179.701,14.823 169.899,14.823" style="fill:rgb(172,206,236);fill-rule:nonzero;"/>
                <path d="M218.364,0.718C216.46,0.155 214.025,-0.42 210.396,-0.42C206.013,-0.42 202.689,0.769 200.237,3.221C197.768,5.687 196.517,9.415 196.517,14.301L196.517,15.907L192.664,15.907C191.928,15.907 191.329,16.503 191.329,17.241L191.329,25.055C191.329,25.793 191.928,26.39 192.664,26.39L196.517,26.39L196.517,57.865C196.517,58.602 197.115,59.199 197.852,59.199L207.221,59.199C207.958,59.199 208.556,58.602 208.556,57.865L208.556,26.39L217.906,26.39C218.644,26.39 219.242,25.793 219.242,25.055L219.242,17.318C219.242,16.58 218.644,15.984 217.906,15.984L208.401,15.984L208.401,15.074C208.401,10.808 210.365,10.218 212.487,10.218C214.362,10.218 215.872,10.593 217.562,11.156C217.968,11.294 218.417,11.222 218.765,10.973C219.114,10.721 219.319,10.319 219.319,9.889L219.319,1.997C219.319,1.406 218.93,0.886 218.364,0.718" style="fill:rgb(77,137,187);fill-rule:nonzero;"/>
                <path d="M236.122,15.675L226.753,15.675C226.016,15.675 225.418,16.271 225.418,17.009L225.418,57.864C225.418,58.602 226.016,59.2 226.753,59.2L236.122,59.2C236.858,59.2 237.457,58.602 237.457,57.864L237.457,17.009C237.457,16.271 236.858,15.675 236.122,15.675" style="fill:rgb(77,137,187);fill-rule:nonzero;"/>
                <path d="M267.829,14.823C263.294,14.823 259.522,16.389 256.387,19.595L256.387,17.009C256.387,16.272 255.79,15.675 255.053,15.675L245.683,15.675C244.946,15.675 244.348,16.272 244.348,17.009L244.348,57.865C244.348,58.603 244.946,59.199 245.683,59.199L255.053,59.199C255.79,59.199 256.387,58.603 256.387,57.865L256.387,34.806C256.387,29.376 259.407,26.003 264.268,26.003C270.395,26.003 271.682,30.707 271.682,34.651L271.682,57.865C271.682,58.603 272.28,59.199 273.016,59.199L282.385,59.199C283.122,59.199 283.722,58.603 283.722,57.865L283.722,31.866C283.722,21.353 277.631,14.823 267.829,14.823" style="fill:rgb(77,137,187);fill-rule:nonzero;"/>
                <path d="M231.306,12.255C234.553,12.255 237.195,9.615 237.195,6.371C237.195,3.126 234.553,0.488 231.306,0.488C228.06,0.488 225.419,3.126 225.419,6.371C225.419,9.615 228.06,12.255 231.306,12.255" style="fill:rgb(77,137,187);fill-rule:nonzero;"/>
            </g>
        </g>
        <g transform="matrix(0.348316,0,0,0.484418,108.681,16.8784)">
            <g transform="matrix(2.87095,0,0,2.06433,-74.8382,-42.5733)">
                <path d="M54.508,58.281L53.875,58.281L53.875,50.137L42.977,50.137L42.977,58.281L42.344,58.281L42.344,41.219L42.977,41.219L42.977,49.504L53.875,49.504L53.875,41.219L54.508,41.219L54.508,58.281Z" style="fill:rgb(172,206,236);fill-rule:nonzero;"/>
            </g>
            <g transform="matrix(2.87095,0,0,2.06433,-74.8382,-42.5733)">
                <path d="M62.219,55.984L62.688,57.25L62.758,57.25L62.828,57.063L67.211,45.602L67.914,45.602L62.277,60.391C61.934,61.281 61.533,62.006 61.076,62.564C60.619,63.123 59.891,63.402 58.891,63.402C58.742,63.402 58.578,63.389 58.398,63.361C58.219,63.334 58.086,63.305 58,63.273L58.105,62.676C58.191,62.699 58.32,62.723 58.492,62.746C58.664,62.77 58.797,62.781 58.891,62.781C59.609,62.781 60.17,62.57 60.572,62.148C60.975,61.727 61.332,61.102 61.645,60.273L62.406,58.211L57.355,45.602L58.047,45.602L62.219,55.984Z" style="fill:rgb(172,206,236);fill-rule:nonzero;"/>
            </g>
            <g transform="matrix(2.87095,0,0,2.06433,-74.8382,-42.5733)">
                <path d="M80.02,52.176C80.02,54.129 79.598,55.676 78.754,56.816C77.91,57.957 76.746,58.527 75.262,58.527C74.277,58.527 73.42,58.332 72.689,57.941C71.959,57.551 71.383,57.02 70.961,56.348L70.961,63.156L70.328,63.156L70.328,54.813C70.32,54.789 70.314,54.77 70.311,54.754C70.307,54.738 70.305,54.723 70.305,54.707L70.305,49.551C70.305,49.543 70.305,49.537 70.305,49.533C70.305,49.529 70.313,49.504 70.328,49.457L70.328,45.602L70.82,45.602L70.949,47.84C71.371,47.074 71.945,46.471 72.672,46.029C73.398,45.588 74.254,45.367 75.238,45.367C76.73,45.367 77.9,45.959 78.748,47.143C79.596,48.326 80.02,49.922 80.02,51.93L80.02,52.176ZM79.375,51.93C79.375,50.172 79.021,48.744 78.314,47.646C77.607,46.549 76.586,46 75.25,46C74.047,46 73.107,46.301 72.432,46.902C71.756,47.504 71.266,48.246 70.961,49.129L70.961,55.188C71.281,56.016 71.805,56.674 72.531,57.162C73.258,57.65 74.172,57.895 75.273,57.895C76.609,57.895 77.627,57.379 78.326,56.348C79.025,55.316 79.375,53.926 79.375,52.176L79.375,51.93Z" style="fill:rgb(172,206,236);fill-rule:nonzero;"/>
            </g>
            <g transform="matrix(2.87095,0,0,2.06433,-74.8382,-42.5733)">
                <path d="M87.906,58.527C86.414,58.527 85.154,57.949 84.127,56.793C83.1,55.637 82.586,54.18 82.586,52.422L82.586,51.672C82.586,49.836 83.096,48.326 84.115,47.143C85.135,45.959 86.418,45.367 87.965,45.367C89.371,45.367 90.492,45.83 91.328,46.756C92.164,47.682 92.582,48.945 92.582,50.547L92.582,51.52L83.219,51.52L83.219,52.422C83.219,53.969 83.656,55.268 84.531,56.318C85.406,57.369 86.531,57.895 87.906,57.895C88.664,57.895 89.393,57.754 90.092,57.473C90.791,57.191 91.359,56.816 91.797,56.348L92.137,56.84C91.691,57.332 91.117,57.736 90.414,58.053C89.711,58.369 88.875,58.527 87.906,58.527ZM87.965,46C86.652,46 85.576,46.455 84.736,47.365C83.896,48.275 83.422,49.426 83.313,50.816L83.348,50.887L91.949,50.887L91.949,50.5C91.949,49.195 91.594,48.119 90.883,47.271C90.172,46.424 89.199,46 87.965,46Z" style="fill:rgb(172,206,236);fill-rule:nonzero;"/>
            </g>
            <g transform="matrix(2.87095,0,0,2.06433,-74.8382,-42.5733)">
                <path d="M101.23,46.059L100.41,45.988C99.277,45.988 98.357,46.354 97.65,47.084C96.943,47.814 96.484,48.777 96.273,49.973L96.273,58.281L95.641,58.281L95.641,45.602L96.156,45.602L96.273,47.805L96.273,48.238C96.625,47.332 97.148,46.627 97.844,46.123C98.539,45.619 99.395,45.367 100.41,45.367C100.59,45.367 100.756,45.381 100.908,45.408C101.061,45.436 101.191,45.465 101.301,45.496L101.23,46.059Z" style="fill:rgb(172,206,236);fill-rule:nonzero;"/>
            </g>
            <g transform="matrix(2.87095,0,0,2.06433,-74.8382,-42.5733)">
                <path d="M103.996,58.281L103.996,41.219L108.484,41.219C110.25,41.219 111.621,41.582 112.598,42.309C113.574,43.035 114.063,44.129 114.063,45.59C114.063,46.543 113.83,47.355 113.365,48.027C112.9,48.699 112.242,49.148 111.391,49.375L111.379,49.445C112.387,49.578 113.234,50.041 113.922,50.834C114.609,51.627 114.953,52.543 114.953,53.582C114.953,55.074 114.471,56.23 113.506,57.051C112.541,57.871 111.266,58.281 109.68,58.281L103.996,58.281ZM104.629,49.855L104.629,57.648L109.68,57.648C111.117,57.648 112.25,57.293 113.078,56.582C113.906,55.871 114.32,54.879 114.32,53.605C114.32,52.48 113.902,51.574 113.066,50.887C112.23,50.199 111.102,49.855 109.68,49.855L104.629,49.855ZM104.629,49.223L108.941,49.223C110.418,49.199 111.533,48.883 112.287,48.273C113.041,47.664 113.418,46.754 113.418,45.543C113.418,44.324 113.002,43.404 112.17,42.783C111.338,42.162 110.109,41.852 108.484,41.852L104.629,41.852L104.629,49.223Z" style="fill:rgb(172,206,236);fill-rule:nonzero;"/>
            </g>
            <g transform="matrix(2.87095,0,0,2.06433,-74.8382,-42.5733)">
                <rect x="118.234" y="40" width="0.633" height="18.281" style="fill:rgb(172,206,236);fill-rule:nonzero;"/>
            </g>
            <g transform="matrix(2.87095,0,0,2.06433,-74.8382,-42.5733)">
                <path d="M122.031,51.695C122.031,49.836 122.545,48.316 123.572,47.137C124.6,45.957 125.934,45.367 127.574,45.367C129.223,45.367 130.561,45.957 131.588,47.137C132.615,48.316 133.129,49.836 133.129,51.695L133.129,52.188C133.129,54.055 132.615,55.578 131.588,56.758C130.561,57.938 129.23,58.527 127.598,58.527C125.949,58.527 124.609,57.938 123.578,56.758C122.547,55.578 122.031,54.055 122.031,52.188L122.031,51.695ZM122.664,52.188C122.664,53.781 123.109,55.131 124,56.236C124.891,57.342 126.09,57.895 127.598,57.895C129.082,57.895 130.27,57.34 131.16,56.23C132.051,55.121 132.496,53.773 132.496,52.188L132.496,51.695C132.496,50.141 132.047,48.803 131.148,47.682C130.25,46.561 129.059,46 127.574,46C126.082,46 124.891,46.561 124,47.682C123.109,48.803 122.664,50.141 122.664,51.695L122.664,52.188Z" style="fill:rgb(172,206,236);fill-rule:nonzero;"/>
            </g>
            <g transform="matrix(2.87095,0,0,2.06433,-74.8382,-42.5733)">
                <path d="M137.477,42.18L137.477,45.602L140.594,45.602L140.594,46.246L137.477,46.246L137.477,55.012C137.477,56.051 137.652,56.791 138.004,57.232C138.355,57.674 138.82,57.895 139.398,57.895C139.609,57.895 139.797,57.887 139.961,57.871C140.125,57.855 140.352,57.828 140.641,57.789L140.758,58.363C140.563,58.426 140.359,58.469 140.148,58.492C139.938,58.516 139.699,58.527 139.434,58.527C138.582,58.527 137.936,58.25 137.494,57.695C137.053,57.141 136.832,56.246 136.832,55.012L136.832,46.246L134.488,46.246L134.488,45.602L136.832,45.602L136.832,42.18L137.477,42.18Z" style="fill:rgb(172,206,236);fill-rule:nonzero;"/>
            </g>
            <g transform="matrix(2.87095,0,0,2.06433,-74.8382,-42.5733)">
                <path d="M144.895,42.18L144.895,45.602L148.012,45.602L148.012,46.246L144.895,46.246L144.895,55.012C144.895,56.051 145.07,56.791 145.422,57.232C145.773,57.674 146.238,57.895 146.816,57.895C147.027,57.895 147.215,57.887 147.379,57.871C147.543,57.855 147.77,57.828 148.059,57.789L148.176,58.363C147.98,58.426 147.777,58.469 147.566,58.492C147.355,58.516 147.117,58.527 146.852,58.527C146,58.527 145.354,58.25 144.912,57.695C144.471,57.141 144.25,56.246 144.25,55.012L144.25,46.246L141.906,46.246L141.906,45.602L144.25,45.602L144.25,42.18L144.895,42.18Z" style="fill:rgb(172,206,236);fill-rule:nonzero;"/>
            </g>
            <g transform="matrix(2.87095,0,0,2.06433,-74.8382,-42.5733)">
                <path d="M155.441,58.527C153.949,58.527 152.689,57.949 151.662,56.793C150.635,55.637 150.121,54.18 150.121,52.422L150.121,51.672C150.121,49.836 150.631,48.326 151.65,47.143C152.67,45.959 153.953,45.367 155.5,45.367C156.906,45.367 158.027,45.83 158.863,46.756C159.699,47.682 160.117,48.945 160.117,50.547L160.117,51.52L150.754,51.52L150.754,52.422C150.754,53.969 151.191,55.268 152.066,56.318C152.941,57.369 154.066,57.895 155.441,57.895C156.199,57.895 156.928,57.754 157.627,57.473C158.326,57.191 158.895,56.816 159.332,56.348L159.672,56.84C159.227,57.332 158.652,57.736 157.949,58.053C157.246,58.369 156.41,58.527 155.441,58.527ZM155.5,46C154.188,46 153.111,46.455 152.271,47.365C151.432,48.275 150.957,49.426 150.848,50.816L150.883,50.887L159.484,50.887L159.484,50.5C159.484,49.195 159.129,48.119 158.418,47.271C157.707,46.424 156.734,46 155.5,46Z" style="fill:rgb(172,206,236);fill-rule:nonzero;"/>
            </g>
            <g transform="matrix(2.87095,0,0,2.06433,-74.8382,-42.5733)">
                <path d="M168.766,46.059L167.945,45.988C166.813,45.988 165.893,46.354 165.186,47.084C164.479,47.814 164.02,48.777 163.809,49.973L163.809,58.281L163.176,58.281L163.176,45.602L163.691,45.602L163.809,47.805L163.809,48.238C164.16,47.332 164.684,46.627 165.379,46.123C166.074,45.619 166.93,45.367 167.945,45.367C168.125,45.367 168.291,45.381 168.443,45.408C168.596,45.436 168.727,45.465 168.836,45.496L168.766,46.059Z" style="fill:rgb(172,206,236);fill-rule:nonzero;"/>
            </g>
        </g>
    </g>
</svg>
