<?xml version="1.0" standalone="no"?>
<!DOCTYPE svg PUBLIC "-//W3C//DTD SVG 1.1//EN" "http://www.w3.org/Graphics/SVG/1.1/DTD/svg11.dtd">
<svg width="100%" height="100%" viewBox="0 0 799 399" version="1.1" xmlns="http://www.w3.org/2000/svg" xmlns:xlink="http://www.w3.org/1999/xlink" xml:space="preserve" style="fill-rule:evenodd;clip-rule:evenodd;stroke-linejoin:round;stroke-miterlimit:1.41421;">
    <g transform="matrix(1,0,0,1,-0,-1)">
        <rect x="0" y="0" width="800" height="400" style="fill:rgb(6,6,33);"/>
        <g transform="matrix(0.479641,0,0,0.479641,40.6348,181.457)">
            <clipPath id="_clip1">
                <rect x="0" y="0" width="296.816" height="71.579"/>
            </clipPath>
            <g clip-path="url(#_clip1)">
                <g transform="matrix(1.00066,0,0,1,-0.18554,0)">
                    <path d="M288.868,3.121L288.868,4.35L286.793,4.35L286.793,10.058L285.334,10.058L285.334,4.35L283.249,4.35L283.249,3.121L288.868,3.121Z" style="fill:rgb(153,153,153);fill-rule:nonzero;"/>
                    <path d="M294.313,3.121L296.398,3.121L296.398,10.058L295.048,10.058L295.048,5.366C295.048,5.231 295.049,5.042 295.052,4.799C295.055,4.556 295.057,4.368 295.057,4.237L293.744,10.058L292.337,10.058L291.033,4.237C291.033,4.368 291.035,4.556 291.038,4.799C291.041,5.042 291.042,5.231 291.042,5.366L291.042,10.058L289.692,10.058L289.692,3.121L291.8,3.121L293.062,8.576L294.313,3.121Z" style="fill:rgb(153,153,153);fill-rule:nonzero;"/>
                </g>
                <path d="M12.039,37.359C12.039,30.599 16.655,25.694 23.015,25.694C29.405,25.694 34.224,30.776 34.224,37.513L34.224,37.669C34.224,43.466 30.426,49.335 23.17,49.335C16.929,49.335 12.039,44.143 12.039,37.513L12.039,37.359ZM23.17,14.822C10.178,14.822 0,24.79 0,37.513L0,37.669C0,50.263 10.108,60.127 23.015,60.127C36.051,60.127 46.263,50.195 46.263,37.513L46.263,37.359C46.263,24.721 36.119,14.822 23.17,14.822" style="fill:rgb(172,206,236);fill-rule:nonzero;"/>
                <path d="M83.198,37.359L83.198,37.513C83.198,44.427 78.939,49.257 72.84,49.257C66.804,49.257 62.252,44.208 62.252,37.513L62.252,37.359C62.252,30.665 66.804,25.616 72.84,25.616C78.841,25.616 83.198,30.555 83.198,37.359M75.009,14.822C70.079,14.822 65.953,16.561 62.484,20.117L62.484,17.009C62.484,16.271 61.886,15.675 61.149,15.675L51.779,15.675C51.042,15.675 50.446,16.271 50.446,17.009L50.446,70.244C50.446,70.982 51.042,71.58 51.779,71.58L61.149,71.58C61.886,71.58 62.484,70.982 62.484,70.244L62.484,55.037C65.958,58.367 70.157,60.049 75.009,60.049C85.137,60.049 95.391,52.309 95.391,37.513L95.391,37.359C95.391,22.722 84.889,14.822 75.009,14.822" style="fill:rgb(172,206,236);fill-rule:nonzero;"/>
                <path d="M119.977,25.152C125.294,25.152 127.958,29.099 128.799,33.24L110.969,33.24C112.134,28.276 115.553,25.152 119.977,25.152M120.054,14.823C107.904,14.823 98.742,24.545 98.742,37.437L98.742,37.592C98.742,50.651 108.128,60.128 121.06,60.128C128.334,60.128 134.305,57.39 138.811,51.987C139.273,51.434 139.211,50.612 138.671,50.135L133.174,45.26C132.652,44.796 131.857,44.814 131.356,45.303C128.082,48.495 125.144,49.798 121.216,49.798C116.068,49.798 112.373,46.952 111.082,42.099L139.488,42.099C140.182,42.099 140.761,41.567 140.819,40.875L140.838,40.66C140.91,39.792 140.978,38.975 140.978,38.132C140.978,26.531 134.509,14.823 120.054,14.823" style="fill:rgb(172,206,236);fill-rule:nonzero;"/>
                <path d="M169.899,14.823C165.364,14.823 161.592,16.389 158.458,19.595L158.458,17.009C158.458,16.272 157.86,15.675 157.123,15.675L147.754,15.675C147.016,15.675 146.418,16.272 146.418,17.009L146.418,57.865C146.418,58.603 147.016,59.199 147.754,59.199L157.123,59.199C157.86,59.199 158.458,58.603 158.458,57.865L158.458,34.806C158.458,29.376 161.477,26.003 166.338,26.003C172.465,26.003 173.752,30.707 173.752,34.651L173.752,57.865C173.752,58.603 174.35,59.199 175.086,59.199L184.455,59.199C185.193,59.199 185.792,58.603 185.792,57.865L185.792,31.866C185.792,21.353 179.701,14.823 169.899,14.823" style="fill:rgb(172,206,236);fill-rule:nonzero;"/>
                <path d="M218.364,0.718C216.46,0.155 214.025,-0.42 210.396,-0.42C206.013,-0.42 202.689,0.769 200.237,3.221C197.768,5.687 196.517,9.415 196.517,14.301L196.517,15.907L192.664,15.907C191.928,15.907 191.329,16.503 191.329,17.241L191.329,25.055C191.329,25.793 191.928,26.39 192.664,26.39L196.517,26.39L196.517,57.865C196.517,58.602 197.115,59.199 197.852,59.199L207.221,59.199C207.958,59.199 208.556,58.602 208.556,57.865L208.556,26.39L217.906,26.39C218.644,26.39 219.242,25.793 219.242,25.055L219.242,17.318C219.242,16.58 218.644,15.984 217.906,15.984L208.401,15.984L208.401,15.074C208.401,10.808 210.365,10.218 212.487,10.218C214.362,10.218 215.872,10.593 217.562,11.156C217.968,11.294 218.417,11.222 218.765,10.973C219.114,10.721 219.319,10.319 219.319,9.889L219.319,1.997C219.319,1.406 218.93,0.886 218.364,0.718" style="fill:rgb(77,137,187);fill-rule:nonzero;"/>
                <path d="M236.122,15.675L226.753,15.675C226.016,15.675 225.418,16.271 225.418,17.009L225.418,57.864C225.418,58.602 226.016,59.2 226.753,59.2L236.122,59.2C236.858,59.2 237.457,58.602 237.457,57.864L237.457,17.009C237.457,16.271 236.858,15.675 236.122,15.675" style="fill:rgb(77,137,187);fill-rule:nonzero;"/>
                <path d="M267.829,14.823C263.294,14.823 259.522,16.389 256.387,19.595L256.387,17.009C256.387,16.272 255.79,15.675 255.053,15.675L245.683,15.675C244.946,15.675 244.348,16.272 244.348,17.009L244.348,57.865C244.348,58.603 244.946,59.199 245.683,59.199L255.053,59.199C255.79,59.199 256.387,58.603 256.387,57.865L256.387,34.806C256.387,29.376 259.407,26.003 264.268,26.003C270.395,26.003 271.682,30.707 271.682,34.651L271.682,57.865C271.682,58.603 272.28,59.199 273.016,59.199L282.385,59.199C283.122,59.199 283.722,58.603 283.722,57.865L283.722,31.866C283.722,21.353 277.631,14.823 267.829,14.823" style="fill:rgb(77,137,187);fill-rule:nonzero;"/>
                <path d="M231.306,12.255C234.553,12.255 237.195,9.615 237.195,6.371C237.195,3.126 234.553,0.488 231.306,0.488C228.06,0.488 225.419,3.126 225.419,6.371C225.419,9.615 228.06,12.255 231.306,12.255" style="fill:rgb(77,137,187);fill-rule:nonzero;"/>
            </g>
        </g>
        <g transform="matrix(1,0,0,1,1.00015,87)">
            <g>
                <g>
                    <path d="M42.818,151.807L43.228,153.74L43.287,153.74L43.775,151.807L46.021,144.668L47.027,144.668L49.273,151.807L49.762,153.799L49.82,153.799L50.279,151.807L52.164,144.668L53.414,144.668L50.338,155.234L49.342,155.234L46.949,148.008L46.529,146.299L46.471,146.299L46.051,148.008L43.707,155.234L42.701,155.234L39.635,144.668L40.885,144.668L42.818,151.807Z" style="fill:rgb(172,206,236);fill-rule:nonzero;"/>
                    <path d="M57.955,151.807L58.365,153.74L58.424,153.74L58.912,151.807L61.158,144.668L62.164,144.668L64.41,151.807L64.898,153.799L64.957,153.799L65.416,151.807L67.301,144.668L68.551,144.668L65.474,155.234L64.478,155.234L62.086,148.008L61.666,146.299L61.607,146.299L61.187,148.008L58.844,155.234L57.838,155.234L54.771,144.668L56.021,144.668L57.955,151.807Z" style="fill:rgb(172,206,236);fill-rule:nonzero;"/>
                    <path d="M73.092,151.807L73.502,153.74L73.56,153.74L74.049,151.807L76.295,144.668L77.301,144.668L79.547,151.807L80.035,153.799L80.094,153.799L80.553,151.807L82.437,144.668L83.687,144.668L80.611,155.234L79.615,155.234L77.223,148.008L76.803,146.299L76.744,146.299L76.324,148.008L73.98,155.234L72.974,155.234L69.908,144.668L71.158,144.668L73.092,151.807Z" style="fill:rgb(172,206,236);fill-rule:nonzero;"/>
                    <rect x="84.83" y="153.633" width="1.338" height="1.602" style="fill:rgb(172,206,236);fill-rule:nonzero;"/>
                    <path d="M88.863,149.795C88.863,148.239 89.29,146.963 90.142,145.967C90.995,144.971 92.125,144.473 93.531,144.473C94.944,144.473 96.077,144.971 96.93,145.967C97.782,146.963 98.209,148.239 98.209,149.795L98.209,150.117C98.209,151.68 97.784,152.957 96.934,153.95C96.085,154.943 94.957,155.439 93.551,155.439C92.131,155.439 90.995,154.943 90.142,153.95C89.29,152.957 88.863,151.68 88.863,150.117L88.863,149.795ZM90.035,150.117C90.035,151.341 90.344,152.37 90.963,153.203C91.581,154.036 92.444,154.453 93.551,154.453C94.638,154.453 95.492,154.036 96.114,153.203C96.736,152.37 97.047,151.341 97.047,150.117L97.047,149.795C97.047,148.59 96.734,147.568 96.109,146.729C95.484,145.889 94.625,145.469 93.531,145.469C92.437,145.469 91.581,145.889 90.963,146.729C90.344,147.568 90.035,148.59 90.035,149.795L90.035,150.117Z" style="fill:rgb(172,206,236);fill-rule:nonzero;"/>
                    <path d="M109.156,150.244C109.156,151.826 108.798,153.088 108.082,154.028C107.366,154.969 106.379,155.439 105.123,155.439C104.387,155.439 103.741,155.299 103.184,155.02C102.628,154.74 102.174,154.342 101.822,153.828L101.822,159.297L100.65,159.297L100.65,144.668L101.549,144.668L101.764,146.318C102.115,145.732 102.571,145.278 103.131,144.956C103.691,144.634 104.348,144.473 105.103,144.473C106.373,144.473 107.366,144.979 108.082,145.991C108.798,147.004 109.156,148.353 109.156,150.039L109.156,150.244ZM107.984,150.039C107.984,148.698 107.717,147.604 107.183,146.758C106.65,145.911 105.868,145.488 104.84,145.488C104.065,145.488 103.432,145.674 102.94,146.045C102.449,146.416 102.076,146.898 101.822,147.49L101.822,152.607C102.096,153.18 102.483,153.631 102.984,153.96C103.486,154.289 104.111,154.453 104.859,154.453C105.881,154.453 106.658,154.069 107.188,153.301C107.719,152.533 107.984,151.514 107.984,150.244L107.984,150.039Z" style="fill:rgb(172,206,236);fill-rule:nonzero;"/>
                    <path d="M115.797,155.439C114.43,155.439 113.32,154.956 112.467,153.989C111.614,153.022 111.187,151.781 111.187,150.264L111.187,149.727C111.187,148.203 111.619,146.947 112.481,145.957C113.344,144.967 114.413,144.473 115.689,144.473C116.972,144.473 117.963,144.884 118.663,145.708C119.363,146.532 119.713,147.64 119.713,149.033L119.713,149.941L112.359,149.941L112.359,150.264C112.359,151.468 112.664,152.467 113.272,153.262C113.881,154.056 114.723,154.453 115.797,154.453C116.441,154.453 117.034,154.347 117.574,154.136C118.114,153.924 118.564,153.639 118.922,153.281L119.42,154.082C119.049,154.473 118.562,154.797 117.96,155.054C117.358,155.311 116.637,155.439 115.797,155.439ZM115.689,145.469C114.791,145.469 114.052,145.791 113.473,146.436C112.893,147.08 112.555,147.897 112.457,148.887L112.486,148.945L118.541,148.945L118.541,148.701C118.541,147.764 118.295,146.991 117.804,146.382C117.312,145.773 116.607,145.469 115.689,145.469Z" style="fill:rgb(172,206,236);fill-rule:nonzero;"/>
                    <path d="M123.111,144.668L123.219,146.504C123.564,145.859 124.023,145.36 124.596,145.005C125.168,144.65 125.849,144.473 126.637,144.473C127.782,144.473 128.655,144.823 129.254,145.522C129.853,146.222 130.152,147.314 130.152,148.799L130.152,155.234L128.98,155.234L128.98,148.809C128.98,147.598 128.754,146.742 128.302,146.24C127.849,145.739 127.206,145.488 126.373,145.488C125.54,145.488 124.867,145.693 124.356,146.104C123.845,146.514 123.476,147.064 123.248,147.754L123.248,155.234L122.076,155.234L122.076,144.668L123.111,144.668Z" style="fill:rgb(172,206,236);fill-rule:nonzero;"/>
                    <path d="M134.01,155.234L134.01,145.625L132.262,145.625L132.262,144.668L134.01,144.668L134.01,143.125C134.01,142.064 134.277,141.243 134.81,140.664C135.344,140.085 136.09,139.795 137.047,139.795C137.255,139.795 137.47,139.811 137.691,139.844C137.913,139.876 138.14,139.922 138.375,139.98L138.219,140.947C138.062,140.908 137.903,140.877 137.74,140.854C137.577,140.832 137.385,140.82 137.164,140.82C136.526,140.82 136.036,141.022 135.694,141.426C135.352,141.829 135.181,142.396 135.181,143.125L135.181,144.668L137.574,144.668L137.574,145.625L135.181,145.625L135.181,155.234L134.01,155.234Z" style="fill:rgb(172,206,236);fill-rule:nonzero;"/>
                    <path d="M140.943,155.234L139.781,155.234L139.781,144.668L140.943,144.668L140.943,155.234ZM140.943,141.641L139.781,141.641L139.781,140L140.943,140L140.943,141.641Z" style="fill:rgb(172,206,236);fill-rule:nonzero;"/>
                    <path d="M145.211,144.668L145.318,146.504C145.663,145.859 146.122,145.36 146.695,145.005C147.268,144.65 147.948,144.473 148.736,144.473C149.882,144.473 150.754,144.823 151.353,145.522C151.952,146.222 152.252,147.314 152.252,148.799L152.252,155.234L151.08,155.234L151.08,148.809C151.08,147.598 150.854,146.742 150.401,146.24C149.949,145.739 149.306,145.488 148.473,145.488C147.639,145.488 146.967,145.693 146.456,146.104C145.945,146.514 145.575,147.064 145.348,147.754L145.348,155.234L144.176,155.234L144.176,144.668L145.211,144.668Z" style="fill:rgb(172,206,236);fill-rule:nonzero;"/>
                    <rect x="155.396" y="153.633" width="1.338" height="1.602" style="fill:rgb(172,206,236);fill-rule:nonzero;"/>
                    <path d="M163.951,154.453C164.7,154.453 165.362,154.232 165.938,153.789C166.515,153.346 166.803,152.731 166.803,151.943L167.848,151.943L167.867,152.002C167.893,152.979 167.509,153.796 166.715,154.453C165.92,155.111 164.999,155.439 163.951,155.439C162.545,155.439 161.449,154.945 160.665,153.955C159.88,152.965 159.488,151.699 159.488,150.156L159.488,149.746C159.488,148.21 159.879,146.947 160.66,145.957C161.441,144.967 162.535,144.473 163.941,144.473C165.074,144.473 166.018,144.814 166.773,145.498C167.528,146.182 167.893,147.08 167.867,148.193L167.848,148.252L166.803,148.252C166.803,147.406 166.526,146.73 165.973,146.226C165.419,145.721 164.742,145.469 163.941,145.469C162.834,145.469 162.011,145.876 161.471,146.689C160.93,147.503 160.66,148.522 160.66,149.746L160.66,150.156C160.66,151.4 160.93,152.427 161.471,153.237C162.011,154.048 162.838,154.453 163.951,154.453Z" style="fill:rgb(172,206,236);fill-rule:nonzero;"/>
                    <path d="M169.723,149.795C169.723,148.239 170.149,146.963 171.002,145.967C171.855,144.971 172.984,144.473 174.39,144.473C175.803,144.473 176.936,144.971 177.789,145.967C178.642,146.963 179.068,148.239 179.068,149.795L179.068,150.117C179.068,151.68 178.643,152.957 177.794,153.95C176.944,154.943 175.816,155.439 174.41,155.439C172.991,155.439 171.855,154.943 171.002,153.95C170.149,152.957 169.723,151.68 169.723,150.117L169.723,149.795ZM170.894,150.117C170.894,151.341 171.204,152.37 171.822,153.203C172.441,154.036 173.303,154.453 174.41,154.453C175.497,154.453 176.352,154.036 176.973,153.203C177.595,152.37 177.906,151.341 177.906,150.117L177.906,149.795C177.906,148.59 177.594,147.568 176.969,146.729C176.344,145.889 175.484,145.469 174.39,145.469C173.297,145.469 172.441,145.889 171.822,146.729C171.204,147.568 170.894,148.59 170.894,149.795L170.894,150.117Z" style="fill:rgb(172,206,236);fill-rule:nonzero;"/>
                    <path d="M51.295,203.639L50.123,203.639L42.047,191.471L41.988,191.481L41.988,203.639L40.816,203.639L40.816,189.42L41.988,189.42L50.064,201.559L50.123,201.549L50.123,189.42L51.295,189.42L51.295,203.639Z" style="fill:rgb(172,206,236);fill-rule:nonzero;"/>
                    <path d="M62.476,196.754L56.099,196.754L56.099,202.653L63.473,202.653L63.473,203.639L54.928,203.639L54.928,189.42L63.424,189.42L63.424,190.416L56.099,190.416L56.099,195.758L62.476,195.758L62.476,196.754Z" style="fill:rgb(172,206,236);fill-rule:nonzero;"/>
                    <path d="M68.433,199.557L68.873,201.852L68.931,201.852L69.43,199.557L72.398,189.42L73.58,189.42L76.558,199.557L77.037,201.862L77.096,201.862L77.564,199.557L80.074,189.42L81.344,189.42L77.701,203.639L76.588,203.639L73.375,192.731L73.023,191.198L72.965,191.198L72.633,192.731L69.381,203.639L68.267,203.639L64.625,189.42L65.894,189.42L68.433,199.557Z" style="fill:rgb(172,206,236);fill-rule:nonzero;"/>
                    <path d="M92.808,197.321L97.213,189.42L98.57,189.42L93.385,198.444L93.385,203.639L92.223,203.639L92.223,198.395L87.076,189.42L88.433,189.42L92.808,197.321Z" style="fill:rgb(172,206,236);fill-rule:nonzero;"/>
                    <path d="M110.933,197.692C110.933,199.528 110.431,201.012 109.425,202.145C108.419,203.278 107.07,203.844 105.377,203.844C103.71,203.844 102.38,203.278 101.388,202.145C100.395,201.012 99.898,199.528 99.898,197.692L99.898,195.377C99.898,193.548 100.393,192.064 101.383,190.924C102.372,189.785 103.7,189.215 105.367,189.215C107.06,189.215 108.411,189.785 109.42,190.924C110.429,192.064 110.933,193.548 110.933,195.377L110.933,197.692ZM109.771,195.358C109.771,193.821 109.382,192.584 108.604,191.647C107.826,190.709 106.747,190.241 105.367,190.241C104.013,190.241 102.958,190.709 102.203,191.647C101.448,192.584 101.07,193.821 101.07,195.358L101.07,197.692C101.07,199.241 101.449,200.485 102.208,201.422C102.966,202.36 104.023,202.829 105.377,202.829C106.764,202.829 107.843,202.361 108.614,201.427C109.386,200.493 109.771,199.248 109.771,197.692L109.771,195.358Z" style="fill:rgb(172,206,236);fill-rule:nonzero;"/>
                    <path d="M115.103,197.213L115.103,203.639L113.931,203.639L113.931,189.43L118.668,189.43C120.191,189.43 121.36,189.764 122.174,190.431C122.987,191.098 123.394,192.073 123.394,193.356C123.394,194.111 123.178,194.787 122.745,195.382C122.312,195.978 121.698,196.412 120.904,196.686C121.783,196.907 122.416,197.303 122.804,197.872C123.191,198.442 123.385,199.157 123.385,200.016L123.385,201.354C123.385,201.797 123.437,202.194 123.541,202.545C123.645,202.897 123.818,203.183 124.058,203.405L124.058,203.639L122.867,203.639C122.626,203.405 122.457,203.076 122.359,202.653C122.262,202.23 122.213,201.79 122.213,201.334L122.213,200.036C122.213,199.163 121.931,198.475 121.368,197.97C120.805,197.466 120.019,197.213 119.01,197.213L115.103,197.213ZM115.103,196.217L118.531,196.217C119.814,196.217 120.751,195.958 121.344,195.441C121.936,194.923 122.232,194.225 122.232,193.346C122.232,192.409 121.938,191.688 121.348,191.183C120.759,190.678 119.866,190.426 118.668,190.426L115.103,190.426L115.103,196.217Z" style="fill:rgb(172,206,236);fill-rule:nonzero;"/>
                    <path d="M129.713,196.891L128.18,196.891L128.18,203.639L127.008,203.639L127.008,189.42L128.18,189.42L128.18,195.905L129.703,195.905L135.289,189.42L136.617,189.42L136.637,189.469L130.738,196.305L137.223,203.59L137.203,203.639L135.797,203.639L129.713,196.891Z" style="fill:rgb(172,206,236);fill-rule:nonzero;"/>
                    <path d="M140.474,203.639L139.137,203.639L139.137,202.037L140.474,202.037L140.474,203.639ZM140.474,195.084L139.137,195.084L139.137,193.483L140.474,193.483L140.474,195.084Z" style="fill:rgb(172,206,236);fill-rule:nonzero;"/>
                    <path d="M156.754,203.639L148.101,203.639L148.101,202.741L152.779,197.282C153.612,196.299 154.189,195.493 154.508,194.865C154.827,194.236 154.986,193.616 154.986,193.004C154.986,192.138 154.753,191.456 154.288,190.958C153.822,190.46 153.134,190.211 152.223,190.211C151.207,190.211 150.426,190.512 149.879,191.115C149.332,191.717 149.058,192.487 149.058,193.424L147.965,193.424L147.945,193.366C147.913,192.207 148.287,191.225 149.068,190.421C149.849,189.617 150.901,189.215 152.223,189.215C153.44,189.215 154.4,189.557 155.103,190.241C155.806,190.924 156.158,191.849 156.158,193.014C156.158,193.782 155.927,194.551 155.465,195.319C155.002,196.087 154.322,197.018 153.424,198.112L149.576,202.604L149.596,202.653L156.754,202.653L156.754,203.639Z" style="fill:rgb(172,206,236);fill-rule:nonzero;"/>
                    <path d="M159.517,197.243L160.299,189.42L167.213,189.42L167.213,190.504L161.305,190.504L160.777,195.621C161.135,195.302 161.531,195.052 161.964,194.87C162.397,194.687 162.978,194.586 163.707,194.567C164.924,194.547 165.903,194.948 166.641,195.768C167.38,196.588 167.75,197.702 167.75,199.108C167.75,200.547 167.389,201.696 166.666,202.555C165.943,203.414 164.859,203.844 163.414,203.844C162.242,203.844 161.265,203.517 160.484,202.863C159.703,202.208 159.329,201.24 159.361,199.957L159.381,199.899L160.435,199.899C160.435,200.856 160.706,201.588 161.246,202.096C161.786,202.604 162.509,202.858 163.414,202.858C164.475,202.858 165.268,202.539 165.792,201.901C166.316,201.263 166.578,200.338 166.578,199.127C166.578,198.066 166.316,197.223 165.792,196.598C165.268,195.973 164.53,195.661 163.58,195.661C162.675,195.661 161.983,195.805 161.505,196.095C161.026,196.385 160.68,196.823 160.465,197.409L159.517,197.243Z" style="fill:rgb(172,206,236);fill-rule:nonzero;"/>
                    <path d="M175.455,203.639L175.455,189.42L179.605,189.42C181.083,189.42 182.236,189.731 183.062,190.353C183.889,190.975 184.303,191.911 184.303,193.161C184.303,193.87 184.102,194.492 183.702,195.026C183.302,195.56 182.763,195.937 182.086,196.159C182.984,196.269 183.718,196.66 184.288,197.33C184.858,198.001 185.142,198.786 185.142,199.684C185.142,200.954 184.731,201.93 183.907,202.614C183.084,203.297 181.982,203.639 180.601,203.639L175.455,203.639ZM176.627,196.784L176.627,202.653L180.601,202.653C181.65,202.653 182.473,202.394 183.072,201.876C183.671,201.359 183.971,200.634 183.971,199.704C183.971,198.851 183.676,198.159 183.087,197.628C182.498,197.098 181.708,196.816 180.719,196.784L180.562,196.784L176.627,196.784ZM176.627,195.797L180.045,195.797C181.028,195.778 181.788,195.542 182.325,195.089C182.862,194.637 183.131,193.981 183.131,193.121C183.131,192.223 182.831,191.548 182.232,191.095C181.633,190.643 180.758,190.416 179.605,190.416L176.627,190.416L176.627,195.797Z" style="fill:rgb(172,206,236);fill-rule:nonzero;"/>
                    <path d="M192.34,194.079L191.51,194.02C190.774,194.02 190.17,194.227 189.698,194.64C189.226,195.053 188.889,195.621 188.687,196.344L188.687,203.639L187.515,203.639L187.515,193.073L188.541,193.073L188.687,194.83L188.687,194.948C188.993,194.297 189.403,193.789 189.918,193.424C190.432,193.06 191.044,192.877 191.754,192.877C191.897,192.877 192.034,192.889 192.164,192.912C192.294,192.934 192.402,192.959 192.486,192.985L192.34,194.079Z" style="fill:rgb(172,206,236);fill-rule:nonzero;"/>
                    <path d="M193.492,198.2C193.492,196.644 193.918,195.368 194.771,194.371C195.624,193.375 196.754,192.877 198.16,192.877C199.573,192.877 200.706,193.375 201.558,194.371C202.411,195.368 202.838,196.644 202.838,198.2L202.838,198.522C202.838,200.084 202.413,201.362 201.563,202.355C200.714,203.348 199.586,203.844 198.18,203.844C196.76,203.844 195.624,203.348 194.771,202.355C193.918,201.362 193.492,200.084 193.492,198.522L193.492,198.2ZM194.664,198.522C194.664,199.746 194.973,200.774 195.592,201.608C196.21,202.441 197.073,202.858 198.18,202.858C199.267,202.858 200.121,202.441 200.743,201.608C201.365,200.774 201.676,199.746 201.676,198.522L201.676,198.2C201.676,196.995 201.363,195.973 200.738,195.133C200.113,194.293 199.254,193.873 198.16,193.873C197.066,193.873 196.21,194.293 195.592,195.133C194.973,195.973 194.664,196.995 194.664,198.2L194.664,198.522Z" style="fill:rgb(172,206,236);fill-rule:nonzero;"/>
                    <path d="M211.969,203.639C211.897,203.268 211.843,202.949 211.807,202.682C211.772,202.415 211.754,202.142 211.754,201.862C211.389,202.435 210.878,202.908 210.221,203.283C209.563,203.657 208.808,203.844 207.955,203.844C206.92,203.844 206.117,203.569 205.548,203.019C204.978,202.469 204.693,201.722 204.693,200.778C204.693,199.834 205.107,199.069 205.933,198.483C206.76,197.897 207.834,197.604 209.156,197.604L211.754,197.604L211.754,196.295C211.754,195.54 211.515,194.948 211.036,194.518C210.557,194.088 209.882,193.873 209.01,193.873C208.209,193.873 207.563,194.069 207.071,194.459C206.58,194.85 206.334,195.342 206.334,195.934L205.25,195.934L205.23,195.875C205.191,195.081 205.531,194.383 206.251,193.781C206.97,193.178 207.909,192.877 209.068,192.877C210.227,192.877 211.158,193.174 211.861,193.766C212.564,194.358 212.916,195.208 212.916,196.315L212.916,201.51C212.916,201.881 212.937,202.243 212.979,202.594C213.022,202.946 213.092,203.294 213.189,203.639L211.969,203.639ZM208.082,202.809C208.98,202.809 209.758,202.596 210.416,202.169C211.073,201.743 211.519,201.194 211.754,200.524L211.754,198.502L209.146,198.502C208.196,198.502 207.411,198.729 206.793,199.181C206.174,199.634 205.865,200.179 205.865,200.817C205.865,201.416 206.062,201.898 206.456,202.262C206.85,202.627 207.392,202.809 208.082,202.809Z" style="fill:rgb(172,206,236);fill-rule:nonzero;"/>
                    <path d="M215.572,198.444C215.572,196.758 215.929,195.408 216.641,194.396C217.354,193.384 218.349,192.877 219.625,192.877C220.348,192.877 220.981,193.03 221.524,193.336C222.068,193.642 222.519,194.075 222.877,194.635L222.877,188.405L224.049,188.405L224.049,203.639L223.092,203.639L222.926,202.106C222.568,202.666 222.112,203.095 221.558,203.395C221.005,203.694 220.354,203.844 219.605,203.844C218.342,203.844 217.354,203.374 216.641,202.433C215.929,201.492 215.572,200.231 215.572,198.649L215.572,198.444ZM216.744,198.649C216.744,199.925 217,200.94 217.511,201.696C218.022,202.451 218.792,202.829 219.82,202.829C220.575,202.829 221.204,202.661 221.705,202.326C222.206,201.99 222.597,201.526 222.877,200.934L222.877,195.924C222.61,195.325 222.232,194.837 221.744,194.459C221.256,194.082 220.621,193.893 219.84,193.893C218.811,193.893 218.038,194.315 217.52,195.158C217.003,196.001 216.744,197.096 216.744,198.444L216.744,198.649Z" style="fill:rgb(172,206,236);fill-rule:nonzero;"/>
                    <path d="M229.439,200.211L229.849,202.145L229.908,202.145L230.396,200.211L232.642,193.073L233.648,193.073L235.894,200.211L236.383,202.204L236.441,202.204L236.9,200.211L238.785,193.073L240.035,193.073L236.959,203.639L235.963,203.639L233.57,196.412L233.15,194.704L233.092,194.704L232.672,196.412L230.328,203.639L229.322,203.639L226.256,193.073L227.506,193.073L229.439,200.211Z" style="fill:rgb(172,206,236);fill-rule:nonzero;"/>
                    <path d="M248.99,203.639C248.918,203.268 248.865,202.949 248.829,202.682C248.793,202.415 248.775,202.142 248.775,201.862C248.411,202.435 247.9,202.908 247.242,203.283C246.584,203.657 245.829,203.844 244.976,203.844C243.941,203.844 243.139,203.569 242.569,203.019C242,202.469 241.715,201.722 241.715,200.778C241.715,199.834 242.128,199.069 242.955,198.483C243.782,197.897 244.856,197.604 246.178,197.604L248.775,197.604L248.775,196.295C248.775,195.54 248.536,194.948 248.057,194.518C247.579,194.088 246.903,193.873 246.031,193.873C245.23,193.873 244.584,194.069 244.093,194.459C243.601,194.85 243.355,195.342 243.355,195.934L242.271,195.934L242.252,195.875C242.213,195.081 242.553,194.383 243.272,193.781C243.992,193.178 244.931,192.877 246.09,192.877C247.249,192.877 248.18,193.174 248.883,193.766C249.586,194.358 249.937,195.208 249.937,196.315L249.937,201.51C249.937,201.881 249.959,202.243 250.001,202.594C250.043,202.946 250.113,203.294 250.211,203.639L248.99,203.639ZM245.103,202.809C246.002,202.809 246.78,202.596 247.437,202.169C248.095,201.743 248.541,201.194 248.775,200.524L248.775,198.502L246.168,198.502C245.217,198.502 244.433,198.729 243.814,199.181C243.196,199.634 242.887,200.179 242.887,200.817C242.887,201.416 243.084,201.898 243.477,202.262C243.871,202.627 244.413,202.809 245.103,202.809Z" style="fill:rgb(172,206,236);fill-rule:nonzero;"/>
                    <path d="M255.904,200.778L256.275,202.037L256.334,202.037L259.527,193.073L260.836,193.073L256.246,205.329C255.973,206.045 255.618,206.653 255.181,207.155C254.745,207.656 254.107,207.907 253.267,207.907C253.131,207.907 252.965,207.892 252.769,207.863C252.574,207.833 252.431,207.802 252.34,207.77L252.476,206.793C252.555,206.806 252.68,206.821 252.852,206.837C253.025,206.854 253.15,206.862 253.228,206.862C253.736,206.862 254.143,206.681 254.449,206.32C254.755,205.958 255.015,205.495 255.23,204.928L255.787,203.502L251.705,193.073L253.004,193.073L255.904,200.778Z" style="fill:rgb(172,206,236);fill-rule:nonzero;"/>
                    <path d="M262.75,203.463L261.715,206.159L260.914,206.159L261.588,203.434L261.588,201.803L262.75,201.803L262.75,203.463Z" style="fill:rgb(172,206,236);fill-rule:nonzero;"/>
                    <path d="M273.853,202.858C274.895,202.858 275.725,202.513 276.344,201.823C276.962,201.133 277.271,200.169 277.271,198.932L277.271,196.862C276.926,197.441 276.466,197.887 275.89,198.2C275.313,198.512 274.677,198.668 273.98,198.668C272.691,198.668 271.658,198.24 270.88,197.384C270.102,196.528 269.713,195.413 269.713,194.039C269.713,192.653 270.12,191.502 270.933,190.587C271.747,189.673 272.766,189.215 273.99,189.215C275.331,189.215 276.415,189.655 277.242,190.534C278.069,191.412 278.482,192.662 278.482,194.284L278.482,198.912C278.482,200.455 278.054,201.663 277.198,202.536C276.342,203.408 275.227,203.844 273.853,203.844C273.365,203.844 272.872,203.792 272.374,203.688C271.876,203.584 271.392,203.431 270.924,203.229L271.139,202.282C271.568,202.49 271.99,202.638 272.403,202.726C272.817,202.814 273.3,202.858 273.853,202.858ZM273.98,197.682C274.807,197.682 275.504,197.474 276.07,197.057C276.637,196.64 277.037,196.126 277.271,195.514L277.271,194.157C277.271,192.894 276.978,191.92 276.392,191.237C275.806,190.553 275.022,190.211 274.039,190.211C273.121,190.211 272.372,190.579 271.793,191.315C271.213,192.051 270.924,192.959 270.924,194.039C270.924,195.081 271.195,195.949 271.739,196.642C272.283,197.335 273.03,197.682 273.98,197.682Z" style="fill:rgb(172,206,236);fill-rule:nonzero;"/>
                    <path d="M283.248,190.368L283.248,193.073L285.572,193.073L285.572,194.03L283.248,194.03L283.248,200.914C283.248,201.605 283.373,202.094 283.624,202.384C283.875,202.674 284.208,202.819 284.625,202.819C284.768,202.819 284.906,202.811 285.04,202.794C285.173,202.778 285.331,202.75 285.514,202.711L285.689,203.58C285.533,203.659 285.339,203.722 285.108,203.771C284.877,203.82 284.648,203.844 284.42,203.844C283.678,203.844 283.1,203.61 282.686,203.141C282.273,202.672 282.066,201.93 282.066,200.914L282.066,194.03L280.24,194.03L280.24,193.073L282.066,193.073L282.066,190.368L283.248,190.368Z" style="fill:rgb(172,206,236);fill-rule:nonzero;"/>
                    <path d="M289.029,194.87C289.387,194.238 289.858,193.748 290.44,193.4C291.023,193.051 291.705,192.877 292.486,192.877C293.599,192.877 294.454,193.222 295.05,193.912C295.645,194.603 295.943,195.674 295.943,197.125L295.943,203.639L294.771,203.639L294.771,197.106C294.771,195.96 294.545,195.138 294.093,194.64C293.64,194.142 293.017,193.893 292.223,193.893C291.402,193.893 290.727,194.093 290.196,194.494C289.666,194.894 289.277,195.429 289.029,196.1L289.029,203.639L287.857,203.639L287.857,188.405L289.029,188.405L289.029,194.87Z" style="fill:rgb(172,206,236);fill-rule:nonzero;"/>
                    <path d="M311.832,196.979L305.299,196.979L305.299,203.639L304.127,203.639L304.127,189.42L312.828,189.42L312.828,190.416L305.299,190.416L305.299,195.973L311.832,195.973L311.832,196.979Z" style="fill:rgb(172,206,236);fill-rule:nonzero;"/>
                    <rect x="315.015" y="188.405" width="1.162" height="15.234" style="fill:rgb(172,206,236);fill-rule:nonzero;"/>
                    <path d="M318.756,198.2C318.756,196.644 319.182,195.368 320.035,194.371C320.888,193.375 322.017,192.877 323.424,192.877C324.836,192.877 325.969,193.375 326.822,194.371C327.675,195.368 328.101,196.644 328.101,198.2L328.101,198.522C328.101,200.084 327.677,201.362 326.827,202.355C325.977,203.348 324.849,203.844 323.443,203.844C322.024,203.844 320.888,203.348 320.035,202.355C319.182,201.362 318.756,200.084 318.756,198.522L318.756,198.2ZM319.928,198.522C319.928,199.746 320.237,200.774 320.855,201.608C321.474,202.441 322.336,202.858 323.443,202.858C324.53,202.858 325.385,202.441 326.007,201.608C326.628,200.774 326.939,199.746 326.939,198.522L326.939,198.2C326.939,196.995 326.627,195.973 326.002,195.133C325.377,194.293 324.517,193.873 323.424,193.873C322.33,193.873 321.474,194.293 320.855,195.133C320.237,195.973 319.928,196.995 319.928,198.2L319.928,198.522Z" style="fill:rgb(172,206,236);fill-rule:nonzero;"/>
                    <path d="M329.889,198.2C329.889,196.644 330.315,195.368 331.168,194.371C332.021,193.375 333.15,192.877 334.556,192.877C335.969,192.877 337.102,193.375 337.955,194.371C338.808,195.368 339.234,196.644 339.234,198.2L339.234,198.522C339.234,200.084 338.809,201.362 337.96,202.355C337.11,203.348 335.982,203.844 334.576,203.844C333.157,203.844 332.021,203.348 331.168,202.355C330.315,201.362 329.889,200.084 329.889,198.522L329.889,198.2ZM331.06,198.522C331.06,199.746 331.37,200.774 331.988,201.608C332.607,202.441 333.469,202.858 334.576,202.858C335.663,202.858 336.518,202.441 337.14,201.608C337.761,200.774 338.072,199.746 338.072,198.522L338.072,198.2C338.072,196.995 337.76,195.973 337.135,195.133C336.51,194.293 335.65,193.873 334.556,193.873C333.463,193.873 332.607,194.293 331.988,195.133C331.37,195.973 331.06,196.995 331.06,198.2L331.06,198.522Z" style="fill:rgb(172,206,236);fill-rule:nonzero;"/>
                    <path d="M346.5,194.079L345.67,194.02C344.934,194.02 344.33,194.227 343.858,194.64C343.386,195.053 343.049,195.621 342.848,196.344L342.848,203.639L341.676,203.639L341.676,193.073L342.701,193.073L342.848,194.83L342.848,194.948C343.153,194.297 343.564,193.789 344.078,193.424C344.592,193.06 345.204,192.877 345.914,192.877C346.057,192.877 346.194,192.889 346.324,192.912C346.454,192.934 346.562,192.959 346.646,192.985L346.5,194.079Z" style="fill:rgb(172,206,236);fill-rule:nonzero;"/>
                    <path d="M348.404,203.463L347.369,206.159L346.568,206.159L347.242,203.434L347.242,201.803L348.404,201.803L348.404,203.463Z" style="fill:rgb(172,206,236);fill-rule:nonzero;"/>
                    <path d="M366.744,203.639L365.572,203.639L357.496,191.471L357.437,191.481L357.437,203.639L356.265,203.639L356.265,189.42L357.437,189.42L365.514,201.559L365.572,201.549L365.572,189.42L366.744,189.42L366.744,203.639Z" style="fill:rgb(172,206,236);fill-rule:nonzero;"/>
                    <path d="M374.117,203.844C372.75,203.844 371.64,203.361 370.787,202.394C369.934,201.427 369.508,200.185 369.508,198.668L369.508,198.131C369.508,196.608 369.939,195.351 370.802,194.362C371.664,193.372 372.734,192.877 374.01,192.877C375.292,192.877 376.283,193.289 376.983,194.113C377.683,194.936 378.033,196.045 378.033,197.438L378.033,198.346L370.68,198.346L370.68,198.668C370.68,199.873 370.984,200.872 371.593,201.666C372.201,202.461 373.043,202.858 374.117,202.858C374.762,202.858 375.354,202.752 375.894,202.54C376.435,202.329 376.884,202.044 377.242,201.686L377.74,202.487C377.369,202.877 376.882,203.201 376.28,203.458C375.678,203.716 374.957,203.844 374.117,203.844ZM374.01,193.873C373.111,193.873 372.372,194.196 371.793,194.84C371.213,195.485 370.875,196.302 370.777,197.291L370.806,197.35L376.861,197.35L376.861,197.106C376.861,196.168 376.615,195.395 376.124,194.787C375.632,194.178 374.928,193.873 374.01,193.873Z" style="fill:rgb(172,206,236);fill-rule:nonzero;"/>
                    <path d="M382.672,200.211L383.082,202.145L383.14,202.145L383.629,200.211L385.875,193.073L386.881,193.073L389.127,200.211L389.615,202.204L389.674,202.204L390.133,200.211L392.017,193.073L393.267,193.073L390.191,203.639L389.195,203.639L386.803,196.412L386.383,194.704L386.324,194.704L385.904,196.412L383.56,203.639L382.555,203.639L379.488,193.073L380.738,193.073L382.672,200.211Z" style="fill:rgb(172,206,236);fill-rule:nonzero;"/>
                    <path d="M404.957,197.321L409.361,189.42L410.719,189.42L405.533,198.444L405.533,203.639L404.371,203.639L404.371,198.395L399.224,189.42L400.582,189.42L404.957,197.321Z" style="fill:rgb(172,206,236);fill-rule:nonzero;"/>
                    <path d="M411.373,198.2C411.373,196.644 411.799,195.368 412.652,194.371C413.505,193.375 414.635,192.877 416.041,192.877C417.454,192.877 418.586,193.375 419.439,194.371C420.292,195.368 420.719,196.644 420.719,198.2L420.719,198.522C420.719,200.084 420.294,201.362 419.444,202.355C418.595,203.348 417.467,203.844 416.06,203.844C414.641,203.844 413.505,203.348 412.652,202.355C411.799,201.362 411.373,200.084 411.373,198.522L411.373,198.2ZM412.545,198.522C412.545,199.746 412.854,200.774 413.473,201.608C414.091,202.441 414.954,202.858 416.06,202.858C417.148,202.858 418.002,202.441 418.624,201.608C419.246,200.774 419.556,199.746 419.556,198.522L419.556,198.2C419.556,196.995 419.244,195.973 418.619,195.133C417.994,194.293 417.135,193.873 416.041,193.873C414.947,193.873 414.091,194.293 413.473,195.133C412.854,195.973 412.545,196.995 412.545,198.2L412.545,198.522Z" style="fill:rgb(172,206,236);fill-rule:nonzero;"/>
                    <path d="M427.984,194.079L427.154,194.02C426.418,194.02 425.815,194.227 425.343,194.64C424.871,195.053 424.534,195.621 424.332,196.344L424.332,203.639L423.16,203.639L423.16,193.073L424.185,193.073L424.332,194.83L424.332,194.948C424.638,194.297 425.048,193.789 425.562,193.424C426.077,193.06 426.689,192.877 427.398,192.877C427.542,192.877 427.678,192.889 427.808,192.912C427.939,192.934 428.046,192.959 428.131,192.985L427.984,194.079Z" style="fill:rgb(172,206,236);fill-rule:nonzero;"/>
                    <path d="M432.398,198.493L431.168,198.493L431.168,203.639L429.996,203.639L429.996,188.405L431.168,188.405L431.168,197.487L432.281,197.487L436.334,193.073L437.701,193.073L437.721,193.121L433.385,197.916L438.072,203.59L438.043,203.639L436.705,203.639L432.398,198.493Z" style="fill:rgb(172,206,236);fill-rule:nonzero;"/>
                    <path d="M440.914,203.463L439.879,206.159L439.078,206.159L439.752,203.434L439.752,201.803L440.914,201.803L440.914,203.463Z" style="fill:rgb(172,206,236);fill-rule:nonzero;"/>
                    <path d="M459.254,203.639L458.082,203.639L450.006,191.471L449.947,191.481L449.947,203.639L448.775,203.639L448.775,189.42L449.947,189.42L458.023,201.559L458.082,201.549L458.082,189.42L459.254,189.42L459.254,203.639Z" style="fill:rgb(172,206,236);fill-rule:nonzero;"/>
                    <path d="M466.9,197.321L471.305,189.42L472.662,189.42L467.476,198.444L467.476,203.639L466.314,203.639L466.314,198.395L461.168,189.42L462.525,189.42L466.9,197.321Z" style="fill:rgb(172,206,236);fill-rule:nonzero;"/>
                    <path d="M473.648,203.463L472.613,206.159L471.812,206.159L472.486,203.434L472.486,201.803L473.648,201.803L473.648,203.463Z" style="fill:rgb(172,206,236);fill-rule:nonzero;"/>
                    <path d="M486.129,203.639L484.957,203.639L484.957,190.426L481.588,190.836L481.588,189.899L486.129,189.215L486.129,203.639Z" style="fill:rgb(172,206,236);fill-rule:nonzero;"/>
                    <path d="M500.738,198.62C500.738,200.241 500.346,201.517 499.561,202.448C498.777,203.379 497.701,203.844 496.334,203.844C494.967,203.844 493.886,203.377 493.092,202.443C492.297,201.509 491.9,200.234 491.9,198.62L491.9,194.44C491.9,192.832 492.294,191.559 493.082,190.621C493.87,189.684 494.947,189.215 496.314,189.215C497.681,189.215 498.761,189.684 499.552,190.621C500.343,191.559 500.738,192.832 500.738,194.44L500.738,198.62ZM499.566,194.254C499.566,193.011 499.285,192.026 498.722,191.3C498.158,190.574 497.356,190.211 496.314,190.211C495.273,190.211 494.47,190.576 493.907,191.305C493.344,192.034 493.062,193.017 493.062,194.254L493.062,198.795C493.062,200.026 493.347,201.01 493.917,201.749C494.487,202.488 495.292,202.858 496.334,202.858C497.369,202.858 498.167,202.49 498.726,201.754C499.286,201.019 499.566,200.032 499.566,198.795L499.566,194.254Z" style="fill:rgb(172,206,236);fill-rule:nonzero;"/>
                    <path d="M511.822,198.62C511.822,200.241 511.43,201.517 510.645,202.448C509.861,203.379 508.785,203.844 507.418,203.844C506.051,203.844 504.97,203.377 504.176,202.443C503.381,201.509 502.984,200.234 502.984,198.62L502.984,194.44C502.984,192.832 503.378,191.559 504.166,190.621C504.954,189.684 506.031,189.215 507.398,189.215C508.765,189.215 509.845,189.684 510.636,190.621C511.427,191.559 511.822,192.832 511.822,194.44L511.822,198.62ZM510.65,194.254C510.65,193.011 510.369,192.026 509.806,191.3C509.242,190.574 508.44,190.211 507.398,190.211C506.357,190.211 505.554,190.576 504.991,191.305C504.428,192.034 504.146,193.017 504.146,194.254L504.146,198.795C504.146,200.026 504.431,201.01 505.001,201.749C505.57,202.488 506.376,202.858 507.418,202.858C508.453,202.858 509.251,202.49 509.81,201.754C510.37,201.019 510.65,200.032 510.65,198.795L510.65,194.254Z" style="fill:rgb(172,206,236);fill-rule:nonzero;"/>
                    <path d="M522.906,198.62C522.906,200.241 522.514,201.517 521.729,202.448C520.945,203.379 519.869,203.844 518.502,203.844C517.135,203.844 516.054,203.377 515.26,202.443C514.465,201.509 514.068,200.234 514.068,198.62L514.068,194.44C514.068,192.832 514.462,191.559 515.25,190.621C516.038,189.684 517.115,189.215 518.482,189.215C519.849,189.215 520.929,189.684 521.72,190.621C522.511,191.559 522.906,192.832 522.906,194.44L522.906,198.62ZM521.734,194.254C521.734,193.011 521.453,192.026 520.89,191.3C520.326,190.574 519.524,190.211 518.482,190.211C517.441,190.211 516.638,190.576 516.075,191.305C515.512,192.034 515.23,193.017 515.23,194.254L515.23,198.795C515.23,200.026 515.515,201.01 516.085,201.749C516.654,202.488 517.46,202.858 518.502,202.858C519.537,202.858 520.334,202.49 520.894,201.754C521.454,201.019 521.734,200.032 521.734,198.795L521.734,194.254Z" style="fill:rgb(172,206,236);fill-rule:nonzero;"/>
                    <path d="M532.428,199.059L534.654,199.059L534.654,200.045L532.428,200.045L532.428,203.639L531.265,203.639L531.265,200.045L524.732,200.045L524.732,199.381L531.148,189.42L532.428,189.42L532.428,199.059ZM526.119,199.059L531.265,199.059L531.265,190.954L531.207,190.934L530.709,191.998L526.119,199.059Z" style="fill:rgb(172,206,236);fill-rule:nonzero;"/>
                    <path d="M41.988,226.855L49.332,226.855L49.332,227.841L40.816,227.841L40.816,213.623L41.988,213.623L41.988,226.855Z" style="fill:rgb(172,206,236);fill-rule:nonzero;"/>
                    <path d="M61.627,221.894C61.627,223.73 61.124,225.214 60.118,226.347C59.112,227.48 57.763,228.046 56.07,228.046C54.403,228.046 53.074,227.48 52.081,226.347C51.088,225.214 50.592,223.73 50.592,221.894L50.592,219.58C50.592,217.75 51.086,216.266 52.076,215.127C53.066,213.987 54.394,213.418 56.06,213.418C57.753,213.418 59.104,213.987 60.113,215.127C61.122,216.266 61.627,217.75 61.627,219.58L61.627,221.894ZM60.465,219.56C60.465,218.024 60.076,216.787 59.298,215.849C58.52,214.912 57.441,214.443 56.06,214.443C54.706,214.443 53.652,214.912 52.896,215.849C52.141,216.787 51.764,218.024 51.764,219.56L51.764,221.894C51.764,223.444 52.143,224.687 52.901,225.625C53.66,226.562 54.716,227.031 56.07,227.031C57.457,227.031 58.536,226.564 59.307,225.629C60.079,224.695 60.465,223.45 60.465,221.894L60.465,219.56Z" style="fill:rgb(172,206,236);fill-rule:nonzero;"/>
                    <path d="M75.133,227.841L73.961,227.841L65.885,215.673L65.826,215.683L65.826,227.841L64.654,227.841L64.654,213.623L65.826,213.623L73.902,225.761L73.961,225.752L73.961,213.623L75.133,213.623L75.133,227.841Z" style="fill:rgb(172,206,236);fill-rule:nonzero;"/>
                    <path d="M78.765,227.841L78.765,213.623L83.101,213.623C84.84,213.623 86.277,214.202 87.413,215.361C88.549,216.52 89.117,218.007 89.117,219.824L89.117,221.65C89.117,223.466 88.549,224.952 87.413,226.108C86.277,227.264 84.84,227.841 83.101,227.841L78.765,227.841ZM79.937,214.619L79.937,226.855L83.101,226.855C84.508,226.855 85.667,226.364 86.578,225.38C87.489,224.397 87.945,223.154 87.945,221.65L87.945,219.795C87.945,218.31 87.488,217.076 86.573,216.093C85.658,215.11 84.501,214.619 83.101,214.619L79.937,214.619Z" style="fill:rgb(172,206,236);fill-rule:nonzero;"/>
                    <path d="M102.652,221.894C102.652,223.73 102.149,225.214 101.143,226.347C100.138,227.48 98.788,228.046 97.096,228.046C95.429,228.046 94.099,227.48 93.106,226.347C92.113,225.214 91.617,223.73 91.617,221.894L91.617,219.58C91.617,217.75 92.112,216.266 93.101,215.127C94.091,213.987 95.419,213.418 97.086,213.418C98.778,213.418 100.129,213.987 101.139,215.127C102.148,216.266 102.652,217.75 102.652,219.58L102.652,221.894ZM101.49,219.56C101.49,218.024 101.101,216.787 100.323,215.849C99.545,214.912 98.466,214.443 97.086,214.443C95.732,214.443 94.677,214.912 93.922,215.849C93.167,216.787 92.789,218.024 92.789,219.56L92.789,221.894C92.789,223.444 93.168,224.687 93.927,225.625C94.685,226.562 95.741,227.031 97.096,227.031C98.482,227.031 99.561,226.564 100.333,225.629C101.104,224.695 101.49,223.45 101.49,221.894L101.49,219.56Z" style="fill:rgb(172,206,236);fill-rule:nonzero;"/>
                    <path d="M116.158,227.841L114.986,227.841L106.91,215.673L106.851,215.683L106.851,227.841L105.68,227.841L105.68,213.623L106.851,213.623L114.928,225.761L114.986,225.752L114.986,213.623L116.158,213.623L116.158,227.841Z" style="fill:rgb(172,206,236);fill-rule:nonzero;"/>
                    <path d="M120.943,227.841L119.605,227.841L119.605,226.24L120.943,226.24L120.943,227.841ZM120.943,219.287L119.605,219.287L119.605,217.685L120.943,217.685L120.943,219.287Z" style="fill:rgb(172,206,236);fill-rule:nonzero;"/>
                    <path d="M137.223,227.841L128.57,227.841L128.57,226.943L133.248,221.484C134.081,220.501 134.657,219.695 134.976,219.067C135.295,218.439 135.455,217.819 135.455,217.207C135.455,216.341 135.222,215.659 134.757,215.161C134.291,214.663 133.603,214.414 132.691,214.414C131.676,214.414 130.894,214.715 130.348,215.317C129.801,215.919 129.527,216.689 129.527,217.627L128.433,217.627L128.414,217.568C128.381,216.409 128.756,215.428 129.537,214.624C130.318,213.82 131.37,213.418 132.691,213.418C133.909,213.418 134.869,213.759 135.572,214.443C136.275,215.127 136.627,216.051 136.627,217.216C136.627,217.985 136.396,218.753 135.933,219.521C135.471,220.289 134.791,221.22 133.892,222.314L130.045,226.806L130.064,226.855L137.223,226.855L137.223,227.841Z" style="fill:rgb(172,206,236);fill-rule:nonzero;"/>
                    <path d="M148.306,227.841L139.654,227.841L139.654,226.943L144.332,221.484C145.165,220.501 145.741,219.695 146.06,219.067C146.379,218.439 146.539,217.819 146.539,217.207C146.539,216.341 146.306,215.659 145.841,215.161C145.375,214.663 144.687,214.414 143.775,214.414C142.76,214.414 141.978,214.715 141.431,215.317C140.885,215.919 140.611,216.689 140.611,217.627L139.517,217.627L139.498,217.568C139.465,216.409 139.84,215.428 140.621,214.624C141.402,213.82 142.454,213.418 143.775,213.418C144.993,213.418 145.953,213.759 146.656,214.443C147.359,215.127 147.711,216.051 147.711,217.216C147.711,217.985 147.48,218.753 147.017,219.521C146.555,220.289 145.875,221.22 144.976,222.314L141.129,226.806L141.148,226.855L148.306,226.855L148.306,227.841Z" style="fill:rgb(172,206,236);fill-rule:nonzero;"/>
                    <path d="M165.914,213.623L165.914,223.066C165.914,224.629 165.435,225.849 164.478,226.728C163.521,227.607 162.291,228.046 160.787,228.046C159.303,228.046 158.09,227.605 157.149,226.723C156.209,225.841 155.738,224.622 155.738,223.066L155.738,213.623L156.91,213.623L156.91,223.066C156.91,224.29 157.273,225.262 157.999,225.981C158.725,226.7 159.654,227.06 160.787,227.06C161.946,227.06 162.896,226.702 163.639,225.986C164.381,225.27 164.752,224.296 164.752,223.066L164.752,213.623L165.914,213.623Z" style="fill:rgb(172,206,236);fill-rule:nonzero;"/>
                    <path d="M177.574,222.851C177.574,224.433 177.216,225.695 176.5,226.635C175.784,227.576 174.797,228.046 173.541,228.046C172.805,228.046 172.159,227.906 171.602,227.627C171.046,227.347 170.592,226.949 170.24,226.435L170.24,231.904L169.068,231.904L169.068,217.275L169.967,217.275L170.181,218.925C170.533,218.339 170.989,217.885 171.549,217.563C172.109,217.241 172.766,217.08 173.521,217.08C174.791,217.08 175.784,217.586 176.5,218.598C177.216,219.611 177.574,220.96 177.574,222.646L177.574,222.851ZM176.402,222.646C176.402,221.305 176.135,220.211 175.601,219.365C175.068,218.518 174.286,218.095 173.258,218.095C172.483,218.095 171.85,218.281 171.358,218.652C170.867,219.023 170.494,219.505 170.24,220.097L170.24,225.214C170.514,225.787 170.901,226.238 171.402,226.567C171.903,226.896 172.528,227.06 173.277,227.06C174.299,227.06 175.076,226.676 175.606,225.908C176.137,225.14 176.402,224.121 176.402,222.851L176.402,222.646Z" style="fill:rgb(172,206,236);fill-rule:nonzero;"/>
                    <path d="M188.707,222.851C188.707,224.433 188.349,225.695 187.633,226.635C186.917,227.576 185.93,228.046 184.674,228.046C183.938,228.046 183.292,227.906 182.735,227.627C182.179,227.347 181.724,226.949 181.373,226.435L181.373,231.904L180.201,231.904L180.201,217.275L181.099,217.275L181.314,218.925C181.666,218.339 182.122,217.885 182.681,217.563C183.241,217.241 183.899,217.08 184.654,217.08C185.924,217.08 186.917,217.586 187.633,218.598C188.349,219.611 188.707,220.96 188.707,222.646L188.707,222.851ZM187.535,222.646C187.535,221.305 187.268,220.211 186.734,219.365C186.2,218.518 185.419,218.095 184.39,218.095C183.616,218.095 182.983,218.281 182.491,218.652C182,219.023 181.627,219.505 181.373,220.097L181.373,225.214C181.646,225.787 182.034,226.238 182.535,226.567C183.036,226.896 183.661,227.06 184.41,227.06C185.432,227.06 186.209,226.676 186.739,225.908C187.27,225.14 187.535,224.121 187.535,222.851L187.535,222.646Z" style="fill:rgb(172,206,236);fill-rule:nonzero;"/>
                    <path d="M195.348,228.046C193.98,228.046 192.87,227.563 192.017,226.596C191.165,225.629 190.738,224.388 190.738,222.871L190.738,222.334C190.738,220.81 191.169,219.554 192.032,218.564C192.895,217.574 193.964,217.08 195.24,217.08C196.523,217.08 197.514,217.491 198.214,218.315C198.914,219.139 199.264,220.247 199.264,221.64L199.264,222.548L191.91,222.548L191.91,222.871C191.91,224.075 192.214,225.074 192.823,225.869C193.432,226.663 194.273,227.06 195.348,227.06C195.992,227.06 196.584,226.954 197.125,226.743C197.665,226.531 198.114,226.246 198.473,225.888L198.971,226.689C198.599,227.08 198.113,227.404 197.511,227.661C196.908,227.918 196.187,228.046 195.348,228.046ZM195.24,218.076C194.342,218.076 193.603,218.398 193.023,219.043C192.444,219.687 192.105,220.504 192.008,221.494L192.037,221.552L198.092,221.552L198.092,221.308C198.092,220.371 197.846,219.598 197.354,218.989C196.863,218.38 196.158,218.076 195.24,218.076Z" style="fill:rgb(172,206,236);fill-rule:nonzero;"/>
                    <path d="M206.451,218.281L205.621,218.222C204.885,218.222 204.281,218.429 203.809,218.842C203.337,219.256 203.001,219.824 202.799,220.546L202.799,227.841L201.627,227.841L201.627,217.275L202.652,217.275L202.799,219.033L202.799,219.15C203.105,218.499 203.515,217.991 204.029,217.627C204.543,217.262 205.155,217.08 205.865,217.08C206.008,217.08 206.145,217.091 206.275,217.114C206.405,217.137 206.513,217.161 206.598,217.187L206.451,218.281Z" style="fill:rgb(172,206,236);fill-rule:nonzero;"/>
                    <path d="M223.697,225.927C223.385,226.442 222.807,226.923 221.964,227.373C221.121,227.822 220.058,228.046 218.775,228.046C217.141,228.046 215.803,227.483 214.762,226.357C213.72,225.231 213.199,223.772 213.199,221.982L213.199,219.375C213.199,217.617 213.704,216.184 214.713,215.078C215.722,213.971 217.027,213.418 218.629,213.418C220.172,213.418 221.397,213.824 222.306,214.638C223.214,215.452 223.655,216.487 223.629,217.744L223.599,217.802L222.525,217.802C222.525,216.819 222.187,216.009 221.51,215.371C220.833,214.733 219.872,214.414 218.629,214.414C217.353,214.414 216.324,214.876 215.543,215.8C214.762,216.725 214.371,217.91 214.371,219.355L214.371,221.982C214.371,223.466 214.778,224.684 215.592,225.634C216.405,226.585 217.467,227.06 218.775,227.06C219.771,227.06 220.585,226.91 221.217,226.611C221.848,226.311 222.288,225.963 222.535,225.566L222.535,221.923L218.707,221.923L218.707,220.927L223.697,220.927L223.697,225.927Z" style="fill:rgb(172,206,236);fill-rule:nonzero;"/>
                    <path d="M231.91,218.281L231.08,218.222C230.344,218.222 229.74,218.429 229.268,218.842C228.796,219.256 228.459,219.824 228.258,220.546L228.258,227.841L227.086,227.841L227.086,217.275L228.111,217.275L228.258,219.033L228.258,219.15C228.564,218.499 228.974,217.991 229.488,217.627C230.002,217.262 230.614,217.08 231.324,217.08C231.467,217.08 231.604,217.091 231.734,217.114C231.864,217.137 231.972,217.161 232.056,217.187L231.91,218.281Z" style="fill:rgb(172,206,236);fill-rule:nonzero;"/>
                    <path d="M233.062,222.402C233.062,220.846 233.489,219.57 234.342,218.574C235.195,217.578 236.324,217.08 237.73,217.08C239.143,217.08 240.276,217.578 241.129,218.574C241.982,219.57 242.408,220.846 242.408,222.402L242.408,222.724C242.408,224.287 241.983,225.564 241.134,226.557C240.284,227.55 239.156,228.046 237.75,228.046C236.331,228.046 235.195,227.55 234.342,226.557C233.489,225.564 233.062,224.287 233.062,222.724L233.062,222.402ZM234.234,222.724C234.234,223.948 234.543,224.977 235.162,225.81C235.78,226.643 236.643,227.06 237.75,227.06C238.837,227.06 239.692,226.643 240.313,225.81C240.935,224.977 241.246,223.948 241.246,222.724L241.246,222.402C241.246,221.198 240.933,220.175 240.308,219.336C239.683,218.496 238.824,218.076 237.73,218.076C236.637,218.076 235.78,218.496 235.162,219.336C234.543,220.175 234.234,221.198 234.234,222.402L234.234,222.724Z" style="fill:rgb(172,206,236);fill-rule:nonzero;"/>
                    <path d="M251.764,226.123C251.425,226.741 250.971,227.216 250.401,227.548C249.832,227.88 249.156,228.046 248.375,228.046C247.262,228.046 246.389,227.669 245.758,226.914C245.126,226.158 244.81,224.987 244.81,223.398L244.81,217.275L245.982,217.275L245.982,223.418C245.982,224.707 246.202,225.631 246.641,226.191C247.081,226.751 247.704,227.031 248.512,227.031C249.39,227.031 250.092,226.834 250.616,226.44C251.14,226.046 251.51,225.507 251.724,224.824L251.724,217.275L252.896,217.275L252.896,227.841L251.861,227.841L251.764,226.123Z" style="fill:rgb(172,206,236);fill-rule:nonzero;"/>
                    <path d="M257.017,217.275L257.125,219.111C257.47,218.466 257.929,217.967 258.502,217.612C259.075,217.257 259.755,217.08 260.543,217.08C261.689,217.08 262.561,217.43 263.16,218.129C263.759,218.829 264.058,219.921 264.058,221.406L264.058,227.841L262.887,227.841L262.887,221.416C262.887,220.205 262.66,219.349 262.208,218.847C261.755,218.346 261.112,218.095 260.279,218.095C259.446,218.095 258.774,218.3 258.263,218.711C257.751,219.121 257.382,219.671 257.154,220.361L257.154,227.841L255.982,227.841L255.982,217.275L257.017,217.275Z" style="fill:rgb(172,206,236);fill-rule:nonzero;"/>
                    <path d="M266.656,222.646C266.656,220.96 267.013,219.611 267.725,218.598C268.438,217.586 269.433,217.08 270.709,217.08C271.431,217.08 272.065,217.233 272.608,217.539C273.152,217.845 273.603,218.278 273.961,218.837L273.961,212.607L275.133,212.607L275.133,227.841L274.176,227.841L274.01,226.308C273.652,226.868 273.196,227.298 272.642,227.597C272.089,227.897 271.438,228.046 270.689,228.046C269.426,228.046 268.438,227.576 267.725,226.635C267.013,225.695 266.656,224.433 266.656,222.851L266.656,222.646ZM267.828,222.851C267.828,224.127 268.084,225.143 268.595,225.898C269.106,226.653 269.876,227.031 270.904,227.031C271.659,227.031 272.288,226.863 272.789,226.528C273.29,226.193 273.681,225.729 273.961,225.136L273.961,220.127C273.694,219.528 273.316,219.039 272.828,218.662C272.34,218.284 271.705,218.095 270.924,218.095C269.895,218.095 269.122,218.517 268.604,219.36C268.087,220.203 267.828,221.298 267.828,222.646L267.828,222.851Z" style="fill:rgb(172,206,236);fill-rule:nonzero;"/>
                    <path d="M279.351,227.666L278.316,230.361L277.515,230.361L278.189,227.636L278.189,226.005L279.351,226.005L279.351,227.666Z" style="fill:rgb(172,206,236);fill-rule:nonzero;"/>
                    <path d="M295.123,217.197C295.123,217.965 294.9,218.639 294.454,219.218C294.008,219.798 293.417,220.218 292.681,220.478C293.528,220.745 294.213,221.191 294.737,221.816C295.261,222.441 295.523,223.167 295.523,223.994C295.523,225.27 295.098,226.264 294.249,226.977C293.399,227.69 292.333,228.046 291.051,228.046C289.683,228.046 288.562,227.692 287.686,226.982C286.811,226.272 286.373,225.276 286.373,223.994C286.373,223.16 286.64,222.431 287.174,221.806C287.708,221.181 288.417,220.735 289.303,220.468C288.528,220.208 287.913,219.79 287.457,219.213C287.001,218.637 286.773,217.965 286.773,217.197C286.773,215.986 287.17,215.053 287.965,214.399C288.759,213.745 289.781,213.418 291.031,213.418C292.209,213.418 293.186,213.745 293.961,214.399C294.736,215.053 295.123,215.986 295.123,217.197ZM294.351,224.004C294.351,223.112 294.029,222.382 293.385,221.816C292.74,221.25 291.956,220.966 291.031,220.966C290.035,220.966 289.203,221.25 288.536,221.816C287.869,222.382 287.535,223.112 287.535,224.004C287.535,224.934 287.867,225.677 288.531,226.23C289.195,226.783 290.035,227.06 291.051,227.06C291.982,227.06 292.765,226.782 293.399,226.225C294.034,225.669 294.351,224.928 294.351,224.004ZM293.951,217.187C293.951,216.373 293.668,215.708 293.101,215.19C292.535,214.672 291.845,214.414 291.031,214.414C290.133,214.414 289.392,214.663 288.809,215.161C288.227,215.659 287.935,216.334 287.935,217.187C287.935,218.027 288.232,218.702 288.824,219.213C289.417,219.725 290.159,219.98 291.051,219.98C291.864,219.98 292.551,219.723 293.111,219.209C293.671,218.694 293.951,218.02 293.951,217.187Z" style="fill:rgb(172,206,236);fill-rule:nonzero;"/>
                    <path d="M299.849,214.57L299.849,217.275L302.174,217.275L302.174,218.232L299.849,218.232L299.849,225.117C299.849,225.807 299.975,226.297 300.225,226.587C300.476,226.876 300.81,227.021 301.226,227.021C301.37,227.021 301.508,227.013 301.641,226.997C301.775,226.98 301.933,226.953 302.115,226.914L302.291,227.783C302.135,227.861 301.941,227.924 301.71,227.973C301.479,228.022 301.249,228.046 301.021,228.046C300.279,228.046 299.701,227.812 299.288,227.343C298.875,226.875 298.668,226.132 298.668,225.117L298.668,218.232L296.842,218.232L296.842,217.275L298.668,217.275L298.668,214.57L299.849,214.57Z" style="fill:rgb(172,206,236);fill-rule:nonzero;"/>
                    <path d="M305.631,219.072C305.989,218.44 306.459,217.95 307.042,217.602C307.625,217.254 308.306,217.08 309.088,217.08C310.201,217.08 311.056,217.425 311.651,218.115C312.247,218.805 312.545,219.876 312.545,221.328L312.545,227.841L311.373,227.841L311.373,221.308C311.373,220.162 311.147,219.34 310.694,218.842C310.242,218.344 309.618,218.095 308.824,218.095C308.004,218.095 307.328,218.295 306.798,218.696C306.267,219.096 305.878,219.632 305.631,220.302L305.631,227.841L304.459,227.841L304.459,212.607L305.631,212.607L305.631,219.072Z" style="fill:rgb(172,206,236);fill-rule:nonzero;"/>
                    <path d="M328.433,221.181L321.9,221.181L321.9,227.841L320.728,227.841L320.728,213.623L329.43,213.623L329.43,214.619L321.9,214.619L321.9,220.175L328.433,220.175L328.433,221.181Z" style="fill:rgb(172,206,236);fill-rule:nonzero;"/>
                    <rect x="331.617" y="212.607" width="1.162" height="15.234" style="fill:rgb(172,206,236);fill-rule:nonzero;"/>
                    <path d="M335.357,222.402C335.357,220.846 335.784,219.57 336.637,218.574C337.489,217.578 338.619,217.08 340.025,217.08C341.438,217.08 342.571,217.578 343.424,218.574C344.277,219.57 344.703,220.846 344.703,222.402L344.703,222.724C344.703,224.287 344.278,225.564 343.429,226.557C342.579,227.55 341.451,228.046 340.045,228.046C338.626,228.046 337.489,227.55 336.637,226.557C335.784,225.564 335.357,224.287 335.357,222.724L335.357,222.402ZM336.529,222.724C336.529,223.948 336.838,224.977 337.457,225.81C338.075,226.643 338.938,227.06 340.045,227.06C341.132,227.06 341.987,226.643 342.608,225.81C343.23,224.977 343.541,223.948 343.541,222.724L343.541,222.402C343.541,221.198 343.228,220.175 342.603,219.336C341.978,218.496 341.119,218.076 340.025,218.076C338.931,218.076 338.075,218.496 337.457,219.336C336.838,220.175 336.529,221.198 336.529,222.402L336.529,222.724Z" style="fill:rgb(172,206,236);fill-rule:nonzero;"/>
                    <path d="M346.49,222.402C346.49,220.846 346.917,219.57 347.769,218.574C348.622,217.578 349.752,217.08 351.158,217.08C352.571,217.08 353.704,217.578 354.556,218.574C355.409,219.57 355.836,220.846 355.836,222.402L355.836,222.724C355.836,224.287 355.411,225.564 354.561,226.557C353.712,227.55 352.584,228.046 351.178,228.046C349.758,228.046 348.622,227.55 347.769,226.557C346.917,225.564 346.49,224.287 346.49,222.724L346.49,222.402ZM347.662,222.724C347.662,223.948 347.971,224.977 348.59,225.81C349.208,226.643 350.071,227.06 351.178,227.06C352.265,227.06 353.119,226.643 353.741,225.81C354.363,224.977 354.674,223.948 354.674,222.724L354.674,222.402C354.674,221.198 354.361,220.175 353.736,219.336C353.111,218.496 352.252,218.076 351.158,218.076C350.064,218.076 349.208,218.496 348.59,219.336C347.971,220.175 347.662,221.198 347.662,222.402L347.662,222.724Z" style="fill:rgb(172,206,236);fill-rule:nonzero;"/>
                    <path d="M363.101,218.281L362.271,218.222C361.536,218.222 360.932,218.429 360.46,218.842C359.988,219.256 359.651,219.824 359.449,220.546L359.449,227.841L358.277,227.841L358.277,217.275L359.303,217.275L359.449,219.033L359.449,219.15C359.755,218.499 360.165,217.991 360.68,217.627C361.194,217.262 361.806,217.08 362.515,217.08C362.659,217.08 362.795,217.091 362.926,217.114C363.056,217.137 363.163,217.161 363.248,217.187L363.101,218.281Z" style="fill:rgb(172,206,236);fill-rule:nonzero;"/>
                    <path d="M365.006,227.666L363.971,230.361L363.17,230.361L363.844,227.636L363.844,226.005L365.006,226.005L365.006,227.666Z" style="fill:rgb(172,206,236);fill-rule:nonzero;"/>
                    <path d="M374.039,226.855L381.383,226.855L381.383,227.841L372.867,227.841L372.867,213.623L374.039,213.623L374.039,226.855Z" style="fill:rgb(172,206,236);fill-rule:nonzero;"/>
                    <path d="M382.955,222.402C382.955,220.846 383.381,219.57 384.234,218.574C385.087,217.578 386.217,217.08 387.623,217.08C389.036,217.08 390.168,217.578 391.021,218.574C391.874,219.57 392.301,220.846 392.301,222.402L392.301,222.724C392.301,224.287 391.876,225.564 391.026,226.557C390.177,227.55 389.049,228.046 387.642,228.046C386.223,228.046 385.087,227.55 384.234,226.557C383.381,225.564 382.955,224.287 382.955,222.724L382.955,222.402ZM384.127,222.724C384.127,223.948 384.436,224.977 385.055,225.81C385.673,226.643 386.536,227.06 387.642,227.06C388.73,227.06 389.584,226.643 390.206,225.81C390.828,224.977 391.139,223.948 391.139,222.724L391.139,222.402C391.139,221.198 390.826,220.175 390.201,219.336C389.576,218.496 388.717,218.076 387.623,218.076C386.529,218.076 385.673,218.496 385.055,219.336C384.436,220.175 384.127,221.198 384.127,222.402L384.127,222.724Z" style="fill:rgb(172,206,236);fill-rule:nonzero;"/>
                    <path d="M395.777,217.275L395.885,219.111C396.23,218.466 396.689,217.967 397.262,217.612C397.834,217.257 398.515,217.08 399.303,217.08C400.448,217.08 401.321,217.43 401.92,218.129C402.519,218.829 402.818,219.921 402.818,221.406L402.818,227.841L401.646,227.841L401.646,221.416C401.646,220.205 401.42,219.349 400.968,218.847C400.515,218.346 399.872,218.095 399.039,218.095C398.206,218.095 397.533,218.3 397.022,218.711C396.511,219.121 396.142,219.671 395.914,220.361L395.914,227.841L394.742,227.841L394.742,217.275L395.777,217.275Z" style="fill:rgb(172,206,236);fill-rule:nonzero;"/>
                    <path d="M405.416,222.646C405.416,220.96 405.772,219.611 406.485,218.598C407.198,217.586 408.193,217.08 409.469,217.08C410.191,217.08 410.824,217.233 411.368,217.539C411.912,217.845 412.362,218.278 412.721,218.837L412.721,212.607L413.892,212.607L413.892,227.841L412.935,227.841L412.769,226.308C412.411,226.868 411.956,227.298 411.402,227.597C410.849,227.897 410.198,228.046 409.449,228.046C408.186,228.046 407.198,227.576 406.485,226.635C405.772,225.695 405.416,224.433 405.416,222.851L405.416,222.646ZM406.588,222.851C406.588,224.127 406.843,225.143 407.354,225.898C407.865,226.653 408.635,227.031 409.664,227.031C410.419,227.031 411.047,226.863 411.549,226.528C412.05,226.193 412.441,225.729 412.721,225.136L412.721,220.127C412.454,219.528 412.076,219.039 411.588,218.662C411.099,218.284 410.465,218.095 409.683,218.095C408.655,218.095 407.882,218.517 407.364,219.36C406.847,220.203 406.588,221.298 406.588,222.646L406.588,222.851Z" style="fill:rgb(172,206,236);fill-rule:nonzero;"/>
                    <path d="M416.353,222.402C416.353,220.846 416.78,219.57 417.633,218.574C418.486,217.578 419.615,217.08 421.021,217.08C422.434,217.08 423.567,217.578 424.42,218.574C425.273,219.57 425.699,220.846 425.699,222.402L425.699,222.724C425.699,224.287 425.274,225.564 424.425,226.557C423.575,227.55 422.447,228.046 421.041,228.046C419.622,228.046 418.486,227.55 417.633,226.557C416.78,225.564 416.353,224.287 416.353,222.724L416.353,222.402ZM417.525,222.724C417.525,223.948 417.834,224.977 418.453,225.81C419.071,226.643 419.934,227.06 421.041,227.06C422.128,227.06 422.983,226.643 423.604,225.81C424.226,224.977 424.537,223.948 424.537,222.724L424.537,222.402C424.537,221.198 424.224,220.175 423.599,219.336C422.974,218.496 422.115,218.076 421.021,218.076C419.928,218.076 419.071,218.496 418.453,219.336C417.834,220.175 417.525,221.198 417.525,222.402L417.525,222.724Z" style="fill:rgb(172,206,236);fill-rule:nonzero;"/>
                    <path d="M429.176,217.275L429.283,219.111C429.628,218.466 430.087,217.967 430.66,217.612C431.233,217.257 431.913,217.08 432.701,217.08C433.847,217.08 434.719,217.43 435.318,218.129C435.917,218.829 436.217,219.921 436.217,221.406L436.217,227.841L435.045,227.841L435.045,221.416C435.045,220.205 434.819,219.349 434.366,218.847C433.914,218.346 433.271,218.095 432.437,218.095C431.604,218.095 430.932,218.3 430.421,218.711C429.91,219.121 429.54,219.671 429.312,220.361L429.312,227.841L428.14,227.841L428.14,217.275L429.176,217.275Z" style="fill:rgb(172,206,236);fill-rule:nonzero;"/>
                    <path d="M440.377,227.666L439.342,230.361L438.541,230.361L439.215,227.636L439.215,226.005L440.377,226.005L440.377,227.666Z" style="fill:rgb(172,206,236);fill-rule:nonzero;"/>
                    <path d="M456.256,224.384C456.256,223.655 455.966,223.053 455.387,222.578C454.807,222.102 453.824,221.656 452.437,221.24C450.92,220.823 449.766,220.304 448.975,219.682C448.184,219.06 447.789,218.216 447.789,217.148C447.789,216.061 448.232,215.167 449.117,214.467C450.002,213.768 451.132,213.418 452.506,213.418C453.951,213.418 455.113,213.813 455.992,214.604C456.871,215.395 457.297,216.399 457.271,217.617L457.252,217.675L456.158,217.675C456.158,216.738 455.818,215.96 455.138,215.341C454.457,214.723 453.58,214.414 452.506,214.414C451.399,214.414 450.531,214.676 449.903,215.2C449.275,215.724 448.961,216.367 448.961,217.129C448.961,217.851 449.246,218.445 449.815,218.911C450.385,219.376 451.389,219.811 452.828,220.214C454.325,220.651 455.468,221.188 456.256,221.826C457.043,222.464 457.437,223.31 457.437,224.365C457.437,225.472 456.977,226.362 456.056,227.036C455.134,227.71 453.974,228.046 452.574,228.046C451.174,228.046 449.954,227.69 448.912,226.977C447.87,226.264 447.366,225.224 447.398,223.857L447.418,223.798L448.502,223.798C448.502,224.899 448.915,225.717 449.742,226.254C450.569,226.792 451.513,227.06 452.574,227.06C453.661,227.06 454.547,226.811 455.23,226.313C455.914,225.815 456.256,225.172 456.256,224.384Z" style="fill:rgb(172,206,236);fill-rule:nonzero;"/>
                    <path d="M467.857,220.957L461.48,220.957L461.48,226.855L468.853,226.855L468.853,227.841L460.308,227.841L460.308,213.623L468.805,213.623L468.805,214.619L461.48,214.619L461.48,219.961L467.857,219.961L467.857,220.957Z" style="fill:rgb(172,206,236);fill-rule:nonzero;"/>
                    <path d="M475.953,227.841L474.781,227.841L474.781,214.629L471.412,215.039L471.412,214.101L475.953,213.418L475.953,227.841Z" style="fill:rgb(172,206,236);fill-rule:nonzero;"/>
                    <path d="M490.523,227.06C491.565,227.06 492.395,226.715 493.014,226.025C493.632,225.335 493.941,224.371 493.941,223.134L493.941,221.064C493.596,221.643 493.136,222.089 492.559,222.402C491.983,222.714 491.347,222.871 490.65,222.871C489.361,222.871 488.328,222.443 487.55,221.587C486.772,220.73 486.383,219.615 486.383,218.242C486.383,216.855 486.79,215.704 487.603,214.79C488.417,213.875 489.436,213.418 490.66,213.418C492.001,213.418 493.085,213.857 493.912,214.736C494.739,215.615 495.152,216.865 495.152,218.486L495.152,223.115C495.152,224.658 494.724,225.865 493.868,226.738C493.012,227.61 491.897,228.046 490.523,228.046C490.035,228.046 489.542,227.994 489.044,227.89C488.546,227.786 488.062,227.633 487.594,227.431L487.808,226.484C488.238,226.692 488.66,226.84 489.073,226.928C489.487,227.016 489.97,227.06 490.523,227.06ZM490.65,221.884C491.477,221.884 492.174,221.676 492.74,221.259C493.306,220.843 493.707,220.328 493.941,219.716L493.941,218.359C493.941,217.096 493.648,216.123 493.062,215.439C492.476,214.755 491.692,214.414 490.709,214.414C489.791,214.414 489.042,214.781 488.463,215.517C487.883,216.253 487.594,217.161 487.594,218.242C487.594,219.283 487.865,220.151 488.409,220.844C488.953,221.538 489.7,221.884 490.65,221.884Z" style="fill:rgb(172,206,236);fill-rule:nonzero;"/>
                    <path d="M499.537,221.933L499.537,227.841L498.365,227.841L498.365,213.623L503.267,213.623C504.758,213.623 505.912,214.004 506.729,214.765C507.546,215.527 507.955,216.53 507.955,217.773C507.955,219.036 507.546,220.045 506.729,220.8C505.912,221.556 504.758,221.933 503.267,221.933L499.537,221.933ZM499.537,220.937L503.267,220.937C504.439,220.937 505.318,220.639 505.904,220.044C506.49,219.448 506.783,218.698 506.783,217.793C506.783,216.881 506.49,216.124 505.904,215.522C505.318,214.92 504.439,214.619 503.267,214.619L499.537,214.619L499.537,220.937Z" style="fill:rgb(172,206,236);fill-rule:nonzero;"/>
                    <path d="M510.699,227.841L510.699,213.623L515.035,213.623C516.773,213.623 518.21,214.202 519.347,215.361C520.483,216.52 521.051,218.007 521.051,219.824L521.051,221.65C521.051,223.466 520.483,224.952 519.347,226.108C518.21,227.264 516.773,227.841 515.035,227.841L510.699,227.841ZM511.871,214.619L511.871,226.855L515.035,226.855C516.441,226.855 517.6,226.364 518.512,225.38C519.423,224.397 519.879,223.154 519.879,221.65L519.879,219.795C519.879,218.31 519.421,217.076 518.507,216.093C517.592,215.11 516.435,214.619 515.035,214.619L511.871,214.619Z" style="fill:rgb(172,206,236);fill-rule:nonzero;"/>
                    <path d="M49.869,266.021L49.889,266.08C49.915,267.056 49.659,267.802 49.122,268.316C48.585,268.83 47.838,269.087 46.881,269.087C45.898,269.087 45.11,268.741 44.517,268.047C43.925,267.354 43.629,266.441 43.629,265.308L43.629,264.146C43.629,263.026 43.925,262.116 44.517,261.417C45.11,260.717 45.898,260.367 46.881,260.367C47.838,260.367 48.586,260.624 49.127,261.138C49.667,261.653 49.924,262.395 49.898,263.365L49.879,263.423L48.99,263.423C48.99,262.688 48.811,262.141 48.453,261.783C48.095,261.425 47.571,261.246 46.881,261.246C46.165,261.246 45.605,261.518 45.201,262.061C44.797,262.605 44.596,263.296 44.596,264.136L44.596,265.308C44.596,266.168 44.796,266.866 45.196,267.403C45.597,267.94 46.158,268.209 46.881,268.209C47.577,268.209 48.101,268.033 48.453,267.681C48.805,267.33 48.98,266.776 48.98,266.021L49.869,266.021ZM40.875,264.722C40.875,266.539 41.469,268.073 42.657,269.327C43.845,270.58 45.286,271.207 46.978,271.207C48.652,271.207 50.085,270.58 51.28,269.327C52.475,268.073 53.072,266.539 53.072,264.722C53.072,262.919 52.476,261.394 51.285,260.147C50.094,258.9 48.658,258.277 46.978,258.277C45.286,258.277 43.845,258.9 42.657,260.147C41.469,261.394 40.875,262.919 40.875,264.722ZM40.045,264.722C40.045,262.671 40.719,260.943 42.066,259.537C43.414,258.13 45.051,257.427 46.978,257.427C48.899,257.427 50.533,258.13 51.881,259.537C53.228,260.943 53.902,262.671 53.902,264.722C53.902,266.78 53.227,268.515 51.876,269.927C50.525,271.34 48.892,272.046 46.978,272.046C45.051,272.046 43.414,271.34 42.066,269.927C40.719,268.515 40.045,266.78 40.045,264.722Z" style="fill:rgb(172,206,236);fill-rule:nonzero;"/>
                    <path d="M69.996,271.841L61.344,271.841L61.344,270.943L66.021,265.484C66.855,264.501 67.431,263.695 67.75,263.067C68.069,262.439 68.228,261.819 68.228,261.207C68.228,260.341 67.996,259.659 67.53,259.161C67.065,258.663 66.376,258.414 65.465,258.414C64.449,258.414 63.668,258.715 63.121,259.317C62.574,259.919 62.301,260.689 62.301,261.627L61.207,261.627L61.187,261.568C61.155,260.409 61.529,259.428 62.31,258.624C63.092,257.82 64.143,257.418 65.465,257.418C66.682,257.418 67.642,257.759 68.346,258.443C69.049,259.127 69.4,260.051 69.4,261.216C69.4,261.985 69.169,262.753 68.707,263.521C68.245,264.289 67.564,265.22 66.666,266.314L62.818,270.806L62.838,270.855L69.996,270.855L69.996,271.841Z" style="fill:rgb(172,206,236);fill-rule:nonzero;"/>
                    <path d="M80.894,266.822C80.894,268.443 80.502,269.719 79.718,270.65C78.933,271.581 77.857,272.046 76.49,272.046C75.123,272.046 74.042,271.579 73.248,270.645C72.454,269.711 72.056,268.436 72.056,266.822L72.056,262.642C72.056,261.034 72.45,259.761 73.238,258.824C74.026,257.886 75.103,257.418 76.471,257.418C77.838,257.418 78.917,257.886 79.708,258.824C80.499,259.761 80.894,261.034 80.894,262.642L80.894,266.822ZM79.723,262.457C79.723,261.213 79.441,260.228 78.878,259.503C78.315,258.777 77.512,258.414 76.471,258.414C75.429,258.414 74.626,258.778 74.063,259.507C73.5,260.237 73.219,261.22 73.219,262.457L73.219,266.998C73.219,268.228 73.503,269.213 74.073,269.952C74.643,270.691 75.448,271.06 76.49,271.06C77.525,271.06 78.323,270.692 78.883,269.957C79.443,269.221 79.723,268.235 79.723,266.998L79.723,262.457Z" style="fill:rgb(172,206,236);fill-rule:nonzero;"/>
                    <path d="M88.453,271.841L87.281,271.841L87.281,258.629L83.912,259.039L83.912,258.101L88.453,257.418L88.453,271.841Z" style="fill:rgb(172,206,236);fill-rule:nonzero;"/>
                    <path d="M94.928,265.445L95.709,257.623L102.623,257.623L102.623,258.707L96.715,258.707L96.187,263.824C96.545,263.505 96.941,263.254 97.374,263.072C97.807,262.89 98.388,262.789 99.117,262.769C100.334,262.75 101.313,263.15 102.052,263.97C102.791,264.791 103.16,265.904 103.16,267.31C103.16,268.749 102.799,269.898 102.076,270.757C101.353,271.617 100.269,272.046 98.824,272.046C97.652,272.046 96.676,271.719 95.894,271.065C95.113,270.411 94.739,269.442 94.771,268.16L94.791,268.101L95.846,268.101C95.846,269.058 96.116,269.791 96.656,270.298C97.196,270.806 97.919,271.06 98.824,271.06C99.885,271.06 100.678,270.741 101.202,270.103C101.726,269.465 101.988,268.541 101.988,267.33C101.988,266.268 101.726,265.425 101.202,264.8C100.678,264.175 99.941,263.863 98.99,263.863C98.085,263.863 97.393,264.008 96.915,264.297C96.436,264.587 96.09,265.025 95.875,265.611L94.928,265.445Z" style="fill:rgb(172,206,236);fill-rule:nonzero;"/>
                    <path d="M121.295,265.894C121.295,267.73 120.792,269.214 119.786,270.347C118.78,271.48 117.431,272.046 115.738,272.046C114.071,272.046 112.742,271.48 111.749,270.347C110.756,269.214 110.26,267.73 110.26,265.894L110.26,263.58C110.26,261.75 110.754,260.266 111.744,259.127C112.734,257.987 114.062,257.418 115.728,257.418C117.421,257.418 118.772,257.987 119.781,259.127C120.79,260.266 121.295,261.75 121.295,263.58L121.295,265.894ZM120.133,263.56C120.133,262.024 119.744,260.787 118.966,259.849C118.188,258.912 117.109,258.443 115.728,258.443C114.374,258.443 113.32,258.912 112.564,259.849C111.809,260.787 111.431,262.024 111.431,263.56L111.431,265.894C111.431,267.444 111.811,268.687 112.569,269.625C113.328,270.562 114.384,271.031 115.738,271.031C117.125,271.031 118.204,270.564 118.975,269.629C119.747,268.695 120.133,267.45 120.133,265.894L120.133,263.56Z" style="fill:rgb(172,206,236);fill-rule:nonzero;"/>
                    <path d="M132.555,266.851C132.555,268.433 132.196,269.695 131.48,270.635C130.764,271.576 129.778,272.046 128.521,272.046C127.786,272.046 127.14,271.906 126.583,271.627C126.026,271.347 125.572,270.949 125.221,270.435L125.221,275.904L124.049,275.904L124.049,261.275L124.947,261.275L125.162,262.925C125.514,262.339 125.969,261.885 126.529,261.563C127.089,261.241 127.747,261.08 128.502,261.08C129.771,261.08 130.764,261.586 131.48,262.598C132.196,263.611 132.555,264.96 132.555,266.646L132.555,266.851ZM131.383,266.646C131.383,265.305 131.116,264.211 130.582,263.365C130.048,262.518 129.267,262.095 128.238,262.095C127.463,262.095 126.83,262.281 126.339,262.652C125.847,263.023 125.474,263.505 125.221,264.097L125.221,269.214C125.494,269.787 125.881,270.238 126.383,270.567C126.884,270.896 127.509,271.06 128.258,271.06C129.28,271.06 130.056,270.676 130.587,269.908C131.117,269.14 131.383,268.121 131.383,266.851L131.383,266.646Z" style="fill:rgb(172,206,236);fill-rule:nonzero;"/>
                    <path d="M139.195,272.046C137.828,272.046 136.718,271.563 135.865,270.596C135.012,269.629 134.586,268.388 134.586,266.871L134.586,266.334C134.586,264.81 135.017,263.554 135.88,262.564C136.742,261.574 137.812,261.08 139.088,261.08C140.37,261.08 141.362,261.491 142.061,262.315C142.761,263.139 143.111,264.247 143.111,265.64L143.111,266.548L135.758,266.548L135.758,266.871C135.758,268.075 136.062,269.074 136.671,269.869C137.279,270.663 138.121,271.06 139.195,271.06C139.84,271.06 140.432,270.954 140.973,270.743C141.513,270.531 141.962,270.246 142.32,269.888L142.818,270.689C142.447,271.08 141.96,271.404 141.358,271.661C140.756,271.918 140.035,272.046 139.195,272.046ZM139.088,262.076C138.189,262.076 137.45,262.398 136.871,263.043C136.292,263.687 135.953,264.504 135.855,265.494L135.885,265.552L141.939,265.552L141.939,265.308C141.939,264.371 141.694,263.598 141.202,262.989C140.71,262.38 140.006,262.076 139.088,262.076Z" style="fill:rgb(172,206,236);fill-rule:nonzero;"/>
                    <path d="M146.51,261.275L146.617,263.111C146.962,262.466 147.421,261.967 147.994,261.612C148.567,261.257 149.247,261.08 150.035,261.08C151.181,261.08 152.053,261.43 152.652,262.129C153.251,262.829 153.551,263.921 153.551,265.406L153.551,271.841L152.379,271.841L152.379,265.416C152.379,264.205 152.153,263.349 151.7,262.847C151.248,262.346 150.605,262.095 149.771,262.095C148.938,262.095 148.266,262.3 147.755,262.711C147.244,263.121 146.874,263.671 146.646,264.361L146.646,271.841L145.474,271.841L145.474,261.275L146.51,261.275Z" style="fill:rgb(172,206,236);fill-rule:nonzero;"/>
                    <path d="M157.408,271.841L157.408,262.232L155.66,262.232L155.66,261.275L157.408,261.275L157.408,259.732C157.408,258.671 157.675,257.851 158.209,257.271C158.743,256.692 159.488,256.402 160.445,256.402C160.653,256.402 160.868,256.418 161.09,256.451C161.311,256.483 161.539,256.529 161.773,256.587L161.617,257.554C161.461,257.515 161.301,257.484 161.139,257.462C160.976,257.439 160.784,257.427 160.562,257.427C159.924,257.427 159.434,257.629 159.093,258.033C158.751,258.436 158.58,259.003 158.58,259.732L158.58,261.275L160.973,261.275L160.973,262.232L158.58,262.232L158.58,271.841L157.408,271.841Z" style="fill:rgb(172,206,236);fill-rule:nonzero;"/>
                    <path d="M164.342,271.841L163.18,271.841L163.18,261.275L164.342,261.275L164.342,271.841ZM164.342,258.248L163.18,258.248L163.18,256.607L164.342,256.607L164.342,258.248Z" style="fill:rgb(172,206,236);fill-rule:nonzero;"/>
                    <path d="M168.609,261.275L168.717,263.111C169.062,262.466 169.521,261.967 170.094,261.612C170.667,261.257 171.347,261.08 172.135,261.08C173.28,261.08 174.153,261.43 174.752,262.129C175.351,262.829 175.65,263.921 175.65,265.406L175.65,271.841L174.478,271.841L174.478,265.416C174.478,264.205 174.252,263.349 173.8,262.847C173.347,262.346 172.704,262.095 171.871,262.095C171.038,262.095 170.365,262.3 169.854,262.711C169.343,263.121 168.974,263.671 168.746,264.361L168.746,271.841L167.574,271.841L167.574,261.275L168.609,261.275Z" style="fill:rgb(172,206,236);fill-rule:nonzero;"/>
                    <rect x="178.795" y="270.24" width="1.338" height="1.602" style="fill:rgb(172,206,236);fill-rule:nonzero;"/>
                    <path d="M196.06,267.877L189.82,267.877L188.385,271.841L187.174,271.841L192.398,257.623L193.502,257.623L198.687,271.841L197.476,271.841L196.06,267.877ZM190.191,266.832L195.68,266.832L192.984,259.293L192.926,259.293L190.191,266.832Z" style="fill:rgb(172,206,236);fill-rule:nonzero;"/>
                    <rect x="200.758" y="256.607" width="1.162" height="15.234" style="fill:rgb(172,206,236);fill-rule:nonzero;"/>
                    <rect x="205.299" y="256.607" width="1.162" height="15.234" style="fill:rgb(172,206,236);fill-rule:nonzero;"/>
                    <path d="M219.381,262.281L218.551,262.222C217.815,262.222 217.211,262.429 216.739,262.842C216.267,263.256 215.93,263.824 215.728,264.546L215.728,271.841L214.556,271.841L214.556,261.275L215.582,261.275L215.728,263.033L215.728,263.15C216.034,262.499 216.445,261.991 216.959,261.627C217.473,261.262 218.085,261.08 218.795,261.08C218.938,261.08 219.075,261.091 219.205,261.114C219.335,261.137 219.443,261.161 219.527,261.187L219.381,262.281Z" style="fill:rgb(172,206,236);fill-rule:nonzero;"/>
                    <path d="M222.691,271.841L221.529,271.841L221.529,261.275L222.691,261.275L222.691,271.841ZM222.691,258.248L221.529,258.248L221.529,256.607L222.691,256.607L222.691,258.248Z" style="fill:rgb(172,206,236);fill-rule:nonzero;"/>
                    <path d="M225.504,266.646C225.504,264.96 225.86,263.611 226.573,262.598C227.286,261.586 228.28,261.08 229.556,261.08C230.305,261.08 230.956,261.241 231.51,261.563C232.063,261.885 232.519,262.343 232.877,262.935L233.043,261.275L233.99,261.275L233.99,271.9C233.99,273.248 233.619,274.286 232.877,275.015C232.135,275.744 231.083,276.109 229.723,276.109C229.215,276.109 228.673,276.047 228.097,275.923C227.52,275.8 227.017,275.63 226.588,275.416L226.812,274.429C227.236,274.638 227.686,274.795 228.165,274.903C228.643,275.01 229.156,275.064 229.703,275.064C230.745,275.064 231.523,274.797 232.037,274.263C232.551,273.729 232.808,272.942 232.808,271.9L232.808,270.406C232.45,270.933 231.996,271.338 231.446,271.622C230.896,271.905 230.26,272.046 229.537,272.046C228.274,272.046 227.286,271.574 226.573,270.63C225.86,269.686 225.504,268.427 225.504,266.851L225.504,266.646ZM226.676,266.851C226.676,268.127 226.933,269.143 227.447,269.898C227.961,270.653 228.733,271.031 229.762,271.031C230.504,271.031 231.127,270.863 231.632,270.528C232.136,270.193 232.528,269.732 232.808,269.146L232.808,264.107C232.542,263.515 232.162,263.031 231.671,262.657C231.179,262.282 230.549,262.095 229.781,262.095C228.752,262.095 227.978,262.518 227.457,263.365C226.936,264.211 226.676,265.305 226.676,266.646L226.676,266.851Z" style="fill:rgb(172,206,236);fill-rule:nonzero;"/>
                    <path d="M238.228,263.072C238.586,262.44 239.057,261.95 239.64,261.602C240.222,261.254 240.904,261.08 241.685,261.08C242.799,261.08 243.653,261.425 244.249,262.115C244.845,262.805 245.142,263.876 245.142,265.328L245.142,271.841L243.971,271.841L243.971,265.308C243.971,264.162 243.744,263.34 243.292,262.842C242.839,262.344 242.216,262.095 241.422,262.095C240.601,262.095 239.926,262.295 239.395,262.696C238.865,263.096 238.476,263.632 238.228,264.302L238.228,271.841L237.056,271.841L237.056,256.607L238.228,256.607L238.228,263.072Z" style="fill:rgb(172,206,236);fill-rule:nonzero;"/>
                    <path d="M250.015,258.57L250.015,261.275L252.34,261.275L252.34,262.232L250.015,262.232L250.015,269.117C250.015,269.807 250.141,270.297 250.391,270.587C250.642,270.876 250.976,271.021 251.392,271.021C251.536,271.021 251.674,271.013 251.807,270.997C251.941,270.98 252.099,270.953 252.281,270.914L252.457,271.783C252.301,271.861 252.107,271.924 251.876,271.973C251.645,272.022 251.415,272.046 251.187,272.046C250.445,272.046 249.867,271.812 249.454,271.343C249.041,270.875 248.834,270.132 248.834,269.117L248.834,262.232L247.008,262.232L247.008,261.275L248.834,261.275L248.834,258.57L250.015,258.57Z" style="fill:rgb(172,206,236);fill-rule:nonzero;"/>
                    <path d="M260.953,269.136C260.953,268.642 260.75,268.21 260.343,267.842C259.936,267.475 259.202,267.173 258.14,266.939C256.89,266.679 255.961,266.322 255.352,265.87C254.744,265.417 254.439,264.784 254.439,263.97C254.439,263.163 254.779,262.479 255.46,261.92C256.14,261.36 257.04,261.08 258.16,261.08C259.338,261.08 260.279,261.378 260.982,261.973C261.685,262.569 262.021,263.303 261.988,264.175L261.969,264.234L260.885,264.234C260.885,263.655 260.636,263.15 260.138,262.72C259.64,262.291 258.98,262.076 258.16,262.076C257.314,262.076 256.676,262.261 256.246,262.632C255.816,263.004 255.601,263.436 255.601,263.931C255.601,264.413 255.785,264.812 256.153,265.128C256.521,265.443 257.255,265.722 258.355,265.962C259.592,266.236 260.528,266.617 261.163,267.105C261.798,267.593 262.115,268.251 262.115,269.078C262.115,269.957 261.759,270.671 261.046,271.221C260.333,271.771 259.39,272.046 258.219,272.046C256.936,272.046 255.929,271.74 255.196,271.129C254.464,270.517 254.117,269.787 254.156,268.941L254.176,268.882L255.25,268.882C255.295,269.644 255.606,270.198 256.182,270.543C256.759,270.888 257.437,271.06 258.219,271.06C259.065,271.06 259.732,270.871 260.221,270.494C260.709,270.116 260.953,269.664 260.953,269.136Z" style="fill:rgb(172,206,236);fill-rule:nonzero;"/>
                    <path d="M274.498,262.281L273.668,262.222C272.932,262.222 272.328,262.429 271.856,262.842C271.384,263.256 271.047,263.824 270.846,264.546L270.846,271.841L269.674,271.841L269.674,261.275L270.699,261.275L270.846,263.033L270.846,263.15C271.152,262.499 271.562,261.991 272.076,261.627C272.59,261.262 273.202,261.08 273.912,261.08C274.055,261.08 274.192,261.091 274.322,261.114C274.452,261.137 274.56,261.161 274.644,261.187L274.498,262.281Z" style="fill:rgb(172,206,236);fill-rule:nonzero;"/>
                    <path d="M280.328,272.046C278.961,272.046 277.851,271.563 276.998,270.596C276.145,269.629 275.719,268.388 275.719,266.871L275.719,266.334C275.719,264.81 276.15,263.554 277.013,262.564C277.875,261.574 278.945,261.08 280.221,261.08C281.503,261.08 282.494,261.491 283.194,262.315C283.894,263.139 284.244,264.247 284.244,265.64L284.244,266.548L276.89,266.548L276.89,266.871C276.89,268.075 277.195,269.074 277.804,269.869C278.412,270.663 279.254,271.06 280.328,271.06C280.973,271.06 281.565,270.954 282.105,270.743C282.646,270.531 283.095,270.246 283.453,269.888L283.951,270.689C283.58,271.08 283.093,271.404 282.491,271.661C281.889,271.918 281.168,272.046 280.328,272.046ZM280.221,262.076C279.322,262.076 278.583,262.398 278.004,263.043C277.424,263.687 277.086,264.504 276.988,265.494L277.017,265.552L283.072,265.552L283.072,265.308C283.072,264.371 282.826,263.598 282.335,262.989C281.843,262.38 281.139,262.076 280.221,262.076Z" style="fill:rgb(172,206,236);fill-rule:nonzero;"/>
                    <path d="M292.935,269.136C292.935,268.642 292.732,268.21 292.325,267.842C291.918,267.475 291.184,267.173 290.123,266.939C288.873,266.679 287.944,266.322 287.335,265.87C286.726,265.417 286.422,264.784 286.422,263.97C286.422,263.163 286.762,262.479 287.442,261.92C288.123,261.36 289.023,261.08 290.142,261.08C291.321,261.08 292.262,261.378 292.965,261.973C293.668,262.569 294.003,263.303 293.971,264.175L293.951,264.234L292.867,264.234C292.867,263.655 292.618,263.15 292.12,262.72C291.622,262.291 290.963,262.076 290.142,262.076C289.296,262.076 288.658,262.261 288.228,262.632C287.799,263.004 287.584,263.436 287.584,263.931C287.584,264.413 287.768,264.812 288.136,265.128C288.503,265.443 289.237,265.722 290.338,265.962C291.575,266.236 292.511,266.617 293.145,267.105C293.78,267.593 294.098,268.251 294.098,269.078C294.098,269.957 293.741,270.671 293.028,271.221C292.315,271.771 291.373,272.046 290.201,272.046C288.918,272.046 287.911,271.74 287.179,271.129C286.446,270.517 286.099,269.787 286.139,268.941L286.158,268.882L287.232,268.882C287.278,269.644 287.589,270.198 288.165,270.543C288.741,270.888 289.42,271.06 290.201,271.06C291.047,271.06 291.715,270.871 292.203,270.494C292.691,270.116 292.935,269.664 292.935,269.136Z" style="fill:rgb(172,206,236);fill-rule:nonzero;"/>
                    <path d="M300.806,272.046C299.439,272.046 298.329,271.563 297.476,270.596C296.624,269.629 296.197,268.388 296.197,266.871L296.197,266.334C296.197,264.81 296.628,263.554 297.491,262.564C298.354,261.574 299.423,261.08 300.699,261.08C301.982,261.08 302.973,261.491 303.673,262.315C304.373,263.139 304.723,264.247 304.723,265.64L304.723,266.548L297.369,266.548L297.369,266.871C297.369,268.075 297.673,269.074 298.282,269.869C298.891,270.663 299.732,271.06 300.806,271.06C301.451,271.06 302.043,270.954 302.584,270.743C303.124,270.531 303.573,270.246 303.931,269.888L304.43,270.689C304.058,271.08 303.572,271.404 302.97,271.661C302.367,271.918 301.646,272.046 300.806,272.046ZM300.699,262.076C299.801,262.076 299.062,262.398 298.482,263.043C297.903,263.687 297.564,264.504 297.467,265.494L297.496,265.552L303.551,265.552L303.551,265.308C303.551,264.371 303.305,263.598 302.813,262.989C302.322,262.38 301.617,262.076 300.699,262.076Z" style="fill:rgb(172,206,236);fill-rule:nonzero;"/>
                    <path d="M311.91,262.281L311.08,262.222C310.344,262.222 309.74,262.429 309.268,262.842C308.796,263.256 308.459,263.824 308.258,264.546L308.258,271.841L307.086,271.841L307.086,261.275L308.111,261.275L308.258,263.033L308.258,263.15C308.564,262.499 308.974,261.991 309.488,261.627C310.002,261.262 310.614,261.08 311.324,261.08C311.467,261.08 311.604,261.091 311.734,261.114C311.864,261.137 311.972,261.161 312.056,261.187L311.91,262.281Z" style="fill:rgb(172,206,236);fill-rule:nonzero;"/>
                    <path d="M317.096,269.195L317.437,270.435L317.496,270.435L317.867,269.195L320.738,261.275L321.949,261.275L317.935,271.841L316.998,271.841L312.974,261.275L314.185,261.275L317.096,269.195Z" style="fill:rgb(172,206,236);fill-rule:nonzero;"/>
                    <path d="M327.76,272.046C326.392,272.046 325.282,271.563 324.43,270.596C323.577,269.629 323.15,268.388 323.15,266.871L323.15,266.334C323.15,264.81 323.582,263.554 324.444,262.564C325.307,261.574 326.376,261.08 327.652,261.08C328.935,261.08 329.926,261.491 330.626,262.315C331.326,263.139 331.676,264.247 331.676,265.64L331.676,266.548L324.322,266.548L324.322,266.871C324.322,268.075 324.626,269.074 325.235,269.869C325.844,270.663 326.685,271.06 327.76,271.06C328.404,271.06 328.997,270.954 329.537,270.743C330.077,270.531 330.527,270.246 330.885,269.888L331.383,270.689C331.012,271.08 330.525,271.404 329.923,271.661C329.32,271.918 328.599,272.046 327.76,272.046ZM327.652,262.076C326.754,262.076 326.015,262.398 325.435,263.043C324.856,263.687 324.517,264.504 324.42,265.494L324.449,265.552L330.504,265.552L330.504,265.308C330.504,264.371 330.258,263.598 329.766,262.989C329.275,262.38 328.57,262.076 327.652,262.076Z" style="fill:rgb(172,206,236);fill-rule:nonzero;"/>
                    <path d="M333.58,266.646C333.58,264.96 333.936,263.611 334.649,262.598C335.362,261.586 336.357,261.08 337.633,261.08C338.355,261.08 338.988,261.233 339.532,261.539C340.076,261.845 340.527,262.278 340.885,262.837L340.885,256.607L342.056,256.607L342.056,271.841L341.099,271.841L340.933,270.308C340.575,270.868 340.12,271.298 339.566,271.597C339.013,271.897 338.362,272.046 337.613,272.046C336.35,272.046 335.362,271.576 334.649,270.635C333.936,269.695 333.58,268.433 333.58,266.851L333.58,266.646ZM334.752,266.851C334.752,268.127 335.007,269.143 335.518,269.898C336.029,270.653 336.799,271.031 337.828,271.031C338.583,271.031 339.211,270.863 339.713,270.528C340.214,270.193 340.605,269.729 340.885,269.136L340.885,264.127C340.618,263.528 340.24,263.039 339.752,262.662C339.264,262.284 338.629,262.095 337.848,262.095C336.819,262.095 336.046,262.517 335.528,263.36C335.011,264.203 334.752,265.298 334.752,266.646L334.752,266.851Z" style="fill:rgb(172,206,236);fill-rule:nonzero;"/>
                    <rect x="345.26" y="270.24" width="1.338" height="1.602" style="fill:rgb(172,206,236);fill-rule:nonzero;"/>
                </g>
            </g>
        </g>
        <g>
            <path d="M85.941,97.891L83.938,97.891L83.938,72.1L49.426,72.1L49.426,97.891L47.422,97.891L47.422,43.859L49.426,43.859L49.426,70.096L83.938,70.096L83.938,43.859L85.941,43.859L85.941,97.891Z" style="fill:rgb(172,206,236);fill-rule:nonzero;"/>
            <path d="M110.359,90.617L111.844,94.625L112.066,94.625L112.289,94.031L126.168,57.738L128.395,57.738L110.545,104.57C109.456,107.391 108.188,109.685 106.741,111.454C105.294,113.223 102.987,114.107 99.82,114.107C99.35,114.107 98.831,114.064 98.262,113.978C97.693,113.891 97.272,113.798 97,113.699L97.334,111.807C97.606,111.881 98.014,111.955 98.559,112.029C99.103,112.104 99.523,112.141 99.82,112.141C102.096,112.141 103.871,111.473 105.146,110.137C106.42,108.801 107.551,106.822 108.541,104.199L110.953,97.668L94.959,57.738L97.148,57.738L110.359,90.617Z" style="fill:rgb(172,206,236);fill-rule:nonzero;"/>
            <path d="M166.729,78.557C166.729,84.742 165.393,89.64 162.721,93.252C160.049,96.864 156.363,98.67 151.662,98.67C148.545,98.67 145.83,98.051 143.517,96.814C141.203,95.577 139.379,93.895 138.043,91.768L138.043,113.328L136.039,113.328L136.039,86.906C136.014,86.832 135.996,86.77 135.983,86.721C135.971,86.671 135.965,86.622 135.965,86.572L135.965,70.244C135.965,70.219 135.965,70.201 135.965,70.188C135.965,70.176 135.99,70.096 136.039,69.947L136.039,57.738L137.598,57.738L138.006,64.826C139.342,62.402 141.16,60.491 143.461,59.093C145.762,57.695 148.471,56.996 151.588,56.996C156.313,56.996 160.018,58.87 162.702,62.618C165.386,66.366 166.729,71.419 166.729,77.777L166.729,78.557ZM164.688,77.777C164.688,72.211 163.568,67.69 161.329,64.214C159.09,60.738 155.855,59 151.625,59C147.815,59 144.84,59.952 142.7,61.857C140.56,63.762 139.008,66.113 138.043,68.908L138.043,88.094C139.057,90.716 140.715,92.8 143.016,94.347C145.316,95.893 148.211,96.666 151.699,96.666C155.93,96.666 159.152,95.033 161.366,91.768C163.58,88.502 164.688,84.098 164.688,78.557L164.688,77.777Z" style="fill:rgb(172,206,236);fill-rule:nonzero;"/>
            <path d="M191.703,98.67C186.978,98.67 182.989,96.839 179.735,93.178C176.482,89.516 174.855,84.902 174.855,79.336L174.855,76.961C174.855,71.147 176.47,66.366 179.698,62.618C182.927,58.87 186.99,56.996 191.889,56.996C196.342,56.996 199.892,58.462 202.539,61.394C205.186,64.325 206.51,68.327 206.51,73.398L206.51,76.479L176.859,76.479L176.859,79.336C176.859,84.234 178.245,88.347 181.016,91.675C183.786,95.002 187.349,96.666 191.703,96.666C194.103,96.666 196.41,96.221 198.624,95.33C200.838,94.439 202.638,93.252 204.023,91.768L205.1,93.326C203.689,94.885 201.871,96.165 199.645,97.167C197.418,98.169 194.771,98.67 191.703,98.67ZM191.889,59C187.732,59 184.325,60.441 181.665,63.323C179.006,66.205 177.503,69.848 177.156,74.252L177.268,74.475L204.506,74.475L204.506,73.25C204.506,69.118 203.38,65.711 201.129,63.026C198.878,60.342 195.798,59 191.889,59Z" style="fill:rgb(172,206,236);fill-rule:nonzero;"/>
            <path d="M233.896,59.186L231.299,58.963C227.712,58.963 224.799,60.119 222.56,62.433C220.321,64.746 218.867,67.795 218.199,71.58L218.199,97.891L216.195,97.891L216.195,57.738L217.828,57.738L218.199,64.715L218.199,66.088C219.313,63.218 220.97,60.985 223.172,59.39C225.374,57.794 228.083,56.996 231.299,56.996C231.868,56.996 232.394,57.039 232.876,57.126C233.358,57.213 233.773,57.305 234.119,57.404L233.896,59.186Z" style="fill:rgb(172,206,236);fill-rule:nonzero;"/>
            <path d="M242.654,97.891L242.654,43.859L256.867,43.859C262.458,43.859 266.8,45.01 269.893,47.311C272.985,49.611 274.531,53.075 274.531,57.701C274.531,60.719 273.795,63.292 272.323,65.42C270.851,67.548 268.767,68.97 266.07,69.688L266.033,69.91C269.225,70.331 271.909,71.797 274.086,74.308C276.263,76.819 277.352,79.719 277.352,83.01C277.352,87.735 275.824,91.396 272.769,93.994C269.713,96.592 265.674,97.891 260.652,97.891L242.654,97.891ZM244.658,71.209L244.658,95.887L260.652,95.887C265.204,95.887 268.792,94.761 271.414,92.51C274.036,90.258 275.348,87.117 275.348,83.084C275.348,79.521 274.024,76.652 271.377,74.475C268.73,72.298 265.155,71.209 260.652,71.209L244.658,71.209ZM244.658,69.205L258.314,69.205C262.99,69.131 266.522,68.129 268.909,66.199C271.297,64.27 272.49,61.387 272.49,57.553C272.49,53.693 271.173,50.78 268.538,48.813C265.903,46.847 262.013,45.863 256.867,45.863L244.658,45.863L244.658,69.205Z" style="fill:rgb(172,206,236);fill-rule:nonzero;"/>
            <rect x="287.742" y="40" width="2.004" height="57.891" style="fill:rgb(172,206,236);fill-rule:nonzero;"/>
            <path d="M299.766,77.035C299.766,71.147 301.392,66.335 304.646,62.6C307.899,58.864 312.123,56.996 317.318,56.996C322.538,56.996 326.775,58.864 330.028,62.6C333.282,66.335 334.908,71.147 334.908,77.035L334.908,78.594C334.908,84.507 333.282,89.331 330.028,93.066C326.775,96.802 322.563,98.67 317.393,98.67C312.173,98.67 307.93,96.802 304.664,93.066C301.398,89.331 299.766,84.507 299.766,78.594L299.766,77.035ZM301.77,78.594C301.77,83.641 303.18,87.914 306,91.415C308.82,94.916 312.618,96.666 317.393,96.666C322.093,96.666 325.854,94.91 328.674,91.396C331.494,87.883 332.904,83.616 332.904,78.594L332.904,77.035C332.904,72.112 331.482,67.875 328.637,64.325C325.792,60.775 322.019,59 317.318,59C312.593,59 308.82,60.775 306,64.325C303.18,67.875 301.77,72.112 301.77,77.035L301.77,78.594Z" style="fill:rgb(172,206,236);fill-rule:nonzero;"/>
            <path d="M348.676,46.902L348.676,57.738L358.547,57.738L358.547,59.779L348.676,59.779L348.676,87.537C348.676,90.827 349.232,93.172 350.346,94.569C351.459,95.967 352.931,96.666 354.762,96.666C355.43,96.666 356.023,96.641 356.543,96.592C357.063,96.542 357.78,96.456 358.695,96.332L359.066,98.15C358.448,98.348 357.805,98.484 357.137,98.559C356.469,98.633 355.714,98.67 354.873,98.67C352.176,98.67 350.129,97.792 348.731,96.035C347.334,94.279 346.635,91.446 346.635,87.537L346.635,59.779L339.213,59.779L339.213,57.738L346.635,57.738L346.635,46.902L348.676,46.902Z" style="fill:rgb(172,206,236);fill-rule:nonzero;"/>
            <path d="M372.166,46.902L372.166,57.738L382.037,57.738L382.037,59.779L372.166,59.779L372.166,87.537C372.166,90.827 372.723,93.172 373.836,94.569C374.949,95.967 376.421,96.666 378.252,96.666C378.92,96.666 379.514,96.641 380.033,96.592C380.553,96.542 381.27,96.456 382.186,96.332L382.557,98.15C381.938,98.348 381.295,98.484 380.627,98.559C379.959,98.633 379.204,98.67 378.363,98.67C375.667,98.67 373.619,97.792 372.222,96.035C370.824,94.279 370.125,91.446 370.125,87.537L370.125,59.779L362.703,59.779L362.703,57.738L370.125,57.738L370.125,46.902L372.166,46.902Z" style="fill:rgb(172,206,236);fill-rule:nonzero;"/>
            <path d="M405.564,98.67C400.839,98.67 396.85,96.839 393.597,93.178C390.343,89.516 388.717,84.902 388.717,79.336L388.717,76.961C388.717,71.147 390.331,66.366 393.56,62.618C396.788,58.87 400.852,56.996 405.75,56.996C410.203,56.996 413.753,58.462 416.4,61.394C419.048,64.325 420.371,68.327 420.371,73.398L420.371,76.479L390.721,76.479L390.721,79.336C390.721,84.234 392.106,88.347 394.877,91.675C397.648,95.002 401.21,96.666 405.564,96.666C407.964,96.666 410.271,96.221 412.485,95.33C414.7,94.439 416.499,93.252 417.885,91.768L418.961,93.326C417.551,94.885 415.732,96.165 413.506,97.167C411.279,98.169 408.632,98.67 405.564,98.67ZM405.75,59C401.594,59 398.186,60.441 395.526,63.323C392.867,66.205 391.364,69.848 391.018,74.252L391.129,74.475L418.367,74.475L418.367,73.25C418.367,69.118 417.242,65.711 414.99,63.026C412.739,60.342 409.659,59 405.75,59Z" style="fill:rgb(172,206,236);fill-rule:nonzero;"/>
            <path d="M447.758,59.186L445.16,58.963C441.573,58.963 438.66,60.119 436.421,62.433C434.182,64.746 432.729,67.795 432.061,71.58L432.061,97.891L430.057,97.891L430.057,57.738L431.689,57.738L432.061,64.715L432.061,66.088C433.174,63.218 434.831,60.985 437.033,59.39C439.235,57.794 441.944,56.996 445.16,56.996C445.729,56.996 446.255,57.039 446.737,57.126C447.22,57.213 447.634,57.305 447.98,57.404L447.758,59.186Z" style="fill:rgb(172,206,236);fill-rule:nonzero;"/>
        </g>
    </g>
</svg>
